<svg width="294" height="279" viewBox="0 0 294 279" fill="none" xmlns="http://www.w3.org/2000/svg">
<path fill-rule="evenodd" clip-rule="evenodd" d="M131.005 4.86578C144.898 -5.58135 171.004 2.04733 181.527 15.8818C195.078 33.6961 175.783 64.3803 189.644 81.9551C200.539 95.7709 225.345 83.6479 241.12 91.4457C260.163 100.859 282.318 111.718 289.951 131.538C296.936 149.678 293.998 176.618 278.371 188.182C256.975 204.015 223.728 186.5 199.832 198.227C188.208 203.931 191.487 222.521 185.264 233.873C176.6 249.677 173.498 281.808 155.754 278.63C132.925 274.542 135.768 235.134 116.912 221.632C107.256 214.718 93.6924 225.839 81.8153 225.688C65.1814 225.475 47.3873 228.177 32.6012 220.556C17.8581 212.958 0.441827 200.103 0.00980686 183.525C-0.477397 164.831 17.2911 150.264 30.4222 136.945C40.6734 126.548 67.5843 129.386 67.779 114.788C68.1618 86.0969 12.7196 58.8918 31.7502 37.4127C49.7351 17.1138 77.5083 83.1693 103.281 74.7181C127.294 66.844 110.808 20.0523 131.005 4.86578Z" fill="#00AAFF"/>
</svg>
