<svg width="229" height="215" viewBox="0 0 229 215" fill="none" xmlns="http://www.w3.org/2000/svg">
<path fill-rule="evenodd" clip-rule="evenodd" d="M104.637 27.7476C115.224 30.7962 125.704 21.943 136.663 20.7996C151.466 19.2551 169.312 10.4907 180.923 19.788C192.139 28.7692 186.48 47.6225 187.987 61.8977C189.174 73.1488 183.607 85.5428 188.919 95.5362C198.171 112.942 232.224 119.192 228.753 138.59C225.512 156.696 194.718 151.422 177.67 158.395C167.29 162.641 154.786 163.708 147.192 171.95C136.215 183.863 141.724 213.983 125.54 214.974C107.925 216.052 106.681 183.743 91.1473 175.38C81.2812 170.069 69.1539 177.972 57.9621 178.593C39.3518 179.627 13.1765 195.589 2.54738 180.302C-8.37689 164.592 19.201 145.744 21.9612 126.818C23.5398 115.995 11.4187 105.382 14.9826 95.0391C18.8063 83.9421 36.7027 82.616 40.9611 71.678C45.8027 59.2418 35.3442 44.6924 39.5182 32.0174C43.7873 19.0535 50.9143 0.928826 64.5538 0.0345064C80.9103 -1.03797 88.8875 23.2122 104.637 27.7476Z" fill="#FF007A"/>
</svg>
