<svg width="261" height="280" viewBox="0 0 261 280" fill="none" xmlns="http://www.w3.org/2000/svg">
<path fill-rule="evenodd" clip-rule="evenodd" d="M97.6496 5.60992C111.543 -4.83721 137.649 2.79147 148.172 16.6259C161.723 34.4403 142.428 65.1244 156.288 82.6992C167.184 96.515 191.99 84.392 207.765 92.1898C226.808 101.603 248.963 112.462 256.595 132.282C263.58 150.422 260.643 177.363 245.016 188.926C223.62 204.76 190.373 187.244 166.477 198.971C154.853 204.675 158.132 223.265 151.909 234.617C143.245 250.421 140.143 282.552 122.399 279.374C99.5699 275.286 102.413 235.878 83.5571 222.377C73.9004 215.462 60.3371 226.583 48.4601 226.432C31.8261 226.219 14.0321 228.921 -0.75404 221.3C-15.4971 213.702 -32.9134 200.847 -33.3454 184.27C-33.8326 165.575 -16.0641 151.008 -2.93303 137.689C7.31814 127.292 34.229 130.131 34.4238 115.532C34.8066 86.841 -20.6356 59.636 -1.60504 38.1568C16.3798 17.8579 44.1531 83.9135 69.926 75.4622C93.9387 67.5881 77.4531 20.7965 97.6496 5.60992Z" fill="#00AAFF"/>
</svg>
