<svg width="3850" height="106" viewBox="0 0 3850 106" fill="none" xmlns="http://www.w3.org/2000/svg">
<g clip-path="url(#clip0_292_492)">
<rect x="2453.46" y="53.334" width="53.3361" height="53.3361" fill="#FF5695"/>
<rect x="0.000488281" width="53.3361" height="53.3361" fill="#1D1C22"/>
<rect x="53.3359" width="53.3361" height="53.3361" fill="#FF5695"/>
<rect x="0.000488281" y="53.3379" width="53.3361" height="53.3361" fill="#FF5695"/>
<rect x="106.672" width="53.3361" height="53.3361" fill="#1D1C22"/>
<rect x="53.3359" y="53.334" width="53.3361" height="53.3361" fill="#1D1C22"/>
<rect x="160.008" width="53.3361" height="53.3361" fill="#FF5695"/>
<rect x="106.672" y="53.334" width="53.3361" height="53.3361" fill="#FF5695"/>
<rect x="213.344" width="53.3361" height="53.3361" fill="#1D1C22"/>
<rect x="160.008" y="53.334" width="53.3361" height="53.3361" fill="#1D1C22"/>
<rect x="266.68" width="53.3361" height="53.3361" fill="#FF5695"/>
<rect x="213.344" y="53.334" width="53.3361" height="53.3361" fill="#FF5695"/>
<rect x="320.017" width="53.3361" height="53.3361" fill="#1D1C22"/>
<rect x="266.68" y="53.334" width="53.3361" height="53.3361" fill="#1D1C22"/>
<rect x="373.353" width="53.3361" height="53.3361" fill="#FF5695"/>
<rect x="320.017" y="53.334" width="53.3361" height="53.3361" fill="#FF5695"/>
<rect x="426.688" width="53.3361" height="53.3361" fill="#1D1C22"/>
<rect x="373.353" y="53.334" width="53.3361" height="53.3361" fill="#1D1C22"/>
<rect x="480.024" width="53.3361" height="53.3361" fill="#FF5695"/>
<rect x="426.688" y="53.334" width="53.3361" height="53.3361" fill="#FF5695"/>
<rect x="533.361" width="53.3361" height="53.3361" fill="#1D1C22"/>
<rect x="480.024" y="53.334" width="53.3361" height="53.3361" fill="#1D1C22"/>
<rect x="586.697" width="53.3361" height="53.3361" fill="#FF5695"/>
<rect x="533.361" y="53.334" width="53.3361" height="53.3361" fill="#FF5695"/>
<rect x="640.033" width="53.3361" height="53.3361" fill="#1D1C22"/>
<rect x="586.697" y="53.334" width="53.3361" height="53.3361" fill="#1D1C22"/>
<rect x="693.369" width="53.3361" height="53.3361" fill="#FF5695"/>
<rect x="640.033" y="53.334" width="53.3361" height="53.3361" fill="#FF5695"/>
<rect x="746.705" width="53.3361" height="53.3361" fill="#1D1C22"/>
<rect x="693.369" y="53.334" width="53.3361" height="53.3361" fill="#1D1C22"/>
<rect x="800.041" width="53.3361" height="53.3361" fill="#FF5695"/>
<rect x="746.705" y="53.334" width="53.3361" height="53.3361" fill="#FF5695"/>
<rect x="853.377" width="53.3361" height="53.3361" fill="#1D1C22"/>
<rect x="800.041" y="53.334" width="53.3361" height="53.3361" fill="#1D1C22"/>
<rect x="906.713" width="53.3361" height="53.3361" fill="#FF5695"/>
<rect x="853.377" y="53.3379" width="53.3361" height="53.3361" fill="#FF5695"/>
<rect x="960.049" width="53.3361" height="53.3361" fill="#1D1C22"/>
<rect x="906.713" y="53.334" width="53.3361" height="53.3361" fill="#1D1C22"/>
<rect x="1013.39" width="53.3361" height="53.3361" fill="#FF5695"/>
<rect x="960.049" y="53.334" width="53.3361" height="53.3361" fill="#FF5695"/>
<rect x="1066.72" width="53.3361" height="53.3361" fill="#1D1C22"/>
<rect x="1013.39" y="53.334" width="53.3361" height="53.3361" fill="#1D1C22"/>
<rect x="1120.06" width="53.3361" height="53.3361" fill="#FF5695"/>
<rect x="1066.72" y="53.334" width="53.3361" height="53.3361" fill="#FF5695"/>
<rect x="1173.39" width="53.3361" height="53.3361" fill="#1D1C22"/>
<rect x="1120.06" y="53.334" width="53.3361" height="53.3361" fill="#1D1C22"/>
<rect x="1226.73" width="53.3361" height="53.3361" fill="#FF5695"/>
<rect x="1173.39" y="53.334" width="53.3361" height="53.3361" fill="#FF5695"/>
<rect x="1280.07" width="53.3361" height="53.3361" fill="#1D1C22"/>
<rect x="1226.73" y="53.3379" width="53.3361" height="53.3361" fill="#1D1C22"/>
<rect x="1333.4" width="53.3361" height="53.3361" fill="#FF5695"/>
<rect x="1280.07" y="53.334" width="53.3361" height="53.3361" fill="#FF5695"/>
<rect x="1386.74" width="53.3361" height="53.3361" fill="#1D1C22"/>
<rect x="1333.4" y="53.334" width="53.3361" height="53.3361" fill="#1D1C22"/>
<rect x="1440.07" width="53.3361" height="53.3361" fill="#FF5695"/>
<rect x="1386.74" y="53.334" width="53.3361" height="53.3361" fill="#FF5695"/>
<rect x="1493.41" width="53.3361" height="53.3361" fill="#1D1C22"/>
<rect x="1440.07" y="53.334" width="53.3361" height="53.3361" fill="#1D1C22"/>
<rect x="1546.75" width="53.3361" height="53.3361" fill="#FF5695"/>
<rect x="1493.41" y="53.334" width="53.3361" height="53.3361" fill="#FF5695"/>
<rect x="1600.08" width="53.3361" height="53.3361" fill="#1D1C22"/>
<rect x="1546.75" y="53.334" width="53.3361" height="53.3361" fill="#1D1C22"/>
<rect x="1653.42" width="53.3361" height="53.3361" fill="#FF5695"/>
<rect x="1600.08" y="53.334" width="53.3361" height="53.3361" fill="#FF5695"/>
<rect x="1706.75" width="53.3361" height="53.3361" fill="#1D1C22"/>
<rect x="1653.42" y="53.334" width="53.3361" height="53.3361" fill="#1D1C22"/>
<rect x="1760.09" width="53.3361" height="53.3361" fill="#FF5695"/>
<rect x="1706.75" y="53.334" width="53.3361" height="53.3361" fill="#FF5695"/>
<rect x="1813.43" width="53.3361" height="53.3361" fill="#1D1C22"/>
<rect x="1760.09" y="53.334" width="53.3361" height="53.3361" fill="#1D1C22"/>
<rect x="1866.76" width="53.3361" height="53.3361" fill="#FF5695"/>
<rect x="1813.43" y="53.334" width="53.3361" height="53.3361" fill="#FF5695"/>
<rect x="1920.1" width="53.3361" height="53.3361" fill="#1D1C22"/>
<rect x="1866.76" y="53.334" width="53.3361" height="53.3361" fill="#1D1C22"/>
<rect x="1973.44" width="53.3361" height="53.3361" fill="#FF5695"/>
<rect x="1920.1" y="53.334" width="53.3361" height="53.3361" fill="#FF5695"/>
<rect x="2026.77" width="53.3361" height="53.3361" fill="#1D1C22"/>
<rect x="1973.44" y="53.334" width="53.3361" height="53.3361" fill="#1D1C22"/>
<rect x="2080.11" width="53.3361" height="53.3361" fill="#FF5695"/>
<rect x="2026.77" y="53.334" width="53.3361" height="53.3361" fill="#FF5695"/>
<rect x="2133.44" width="53.3361" height="53.3361" fill="#1D1C22"/>
<rect x="2080.11" y="53.334" width="53.3361" height="53.3361" fill="#1D1C22"/>
<rect x="2186.78" width="53.3361" height="53.3361" fill="#FF5695"/>
<rect x="2133.44" y="53.334" width="53.3361" height="53.3361" fill="#FF5695"/>
<rect x="2240.12" width="53.3361" height="53.3361" fill="#1D1C22"/>
<rect x="2186.78" y="53.334" width="53.3361" height="53.3361" fill="#1D1C22"/>
<rect x="2293.45" width="53.3361" height="53.3361" fill="#FF5695"/>
<rect x="2240.12" y="53.334" width="53.3361" height="53.3361" fill="#FF5695"/>
<rect x="2346.79" width="53.3361" height="53.3361" fill="#1D1C22"/>
<rect x="2293.45" y="53.334" width="53.3361" height="53.3361" fill="#1D1C22"/>
<rect x="2400.12" width="53.3361" height="53.3361" fill="#FF5695"/>
<rect x="2346.79" y="53.334" width="53.3361" height="53.3361" fill="#FF5695"/>
<rect x="2453.46" width="53.3361" height="53.3361" fill="#1D1C22"/>
<rect x="2400.12" y="53.334" width="53.3361" height="53.3361" fill="#1D1C22"/>
<rect x="2507" width="53.3361" height="53.3361" fill="#FF5695"/>
<rect x="2560.34" width="53.3361" height="53.3361" fill="#1D1C22"/>
<rect x="2507" y="53.334" width="53.3361" height="53.3361" fill="#1D1C22"/>
<rect x="2613.67" width="53.3361" height="53.3361" fill="#FF5695"/>
<rect x="2560.34" y="53.3379" width="53.3361" height="53.3361" fill="#FF5695"/>
<rect x="2667.01" width="53.3361" height="53.3361" fill="#1D1C22"/>
<rect x="2613.67" y="53.334" width="53.3361" height="53.3361" fill="#1D1C22"/>
<rect x="2720.34" width="53.3361" height="53.3361" fill="#FF5695"/>
<rect x="2667.01" y="53.334" width="53.3361" height="53.3361" fill="#FF5695"/>
<rect x="2773.68" width="53.3361" height="53.3361" fill="#1D1C22"/>
<rect x="2720.34" y="53.334" width="53.3361" height="53.3361" fill="#1D1C22"/>
<rect x="2827.02" width="53.3361" height="53.3361" fill="#FF5695"/>
<rect x="2773.68" y="53.334" width="53.3361" height="53.3361" fill="#FF5695"/>
<rect x="2880.35" width="53.3361" height="53.3361" fill="#1D1C22"/>
<rect x="2827.02" y="53.334" width="53.3361" height="53.3361" fill="#1D1C22"/>
<rect x="2933.69" width="53.3361" height="53.3361" fill="#FF5695"/>
<rect x="2880.35" y="53.334" width="53.3361" height="53.3361" fill="#FF5695"/>
<rect x="2987.02" width="53.3361" height="53.3361" fill="#1D1C22"/>
<rect x="2933.69" y="53.334" width="53.3361" height="53.3361" fill="#1D1C22"/>
<rect x="3040.36" width="53.3361" height="53.3361" fill="#FF5695"/>
<rect x="2987.02" y="53.334" width="53.3361" height="53.3361" fill="#FF5695"/>
<rect x="3093.7" width="53.3361" height="53.3361" fill="#1D1C22"/>
<rect x="3040.36" y="53.334" width="53.3361" height="53.3361" fill="#1D1C22"/>
<rect x="3147.03" width="53.3361" height="53.3361" fill="#FF5695"/>
<rect x="3093.7" y="53.334" width="53.3361" height="53.3361" fill="#FF5695"/>
<rect x="3200.37" width="53.3361" height="53.3361" fill="#1D1C22"/>
<rect x="3147.03" y="53.334" width="53.3361" height="53.3361" fill="#1D1C22"/>
<rect x="3253.7" width="53.3361" height="53.3361" fill="#FF5695"/>
<rect x="3200.37" y="53.334" width="53.3361" height="53.3361" fill="#FF5695"/>
<rect x="3307.04" width="53.3361" height="53.3361" fill="#1D1C22"/>
<rect x="3253.7" y="53.334" width="53.3361" height="53.3361" fill="#1D1C22"/>
<rect x="3360.38" width="53.3361" height="53.3361" fill="#FF5695"/>
<rect x="3307.04" y="53.334" width="53.3361" height="53.3361" fill="#FF5695"/>
<rect x="3413.71" width="53.3361" height="53.3361" fill="#1D1C22"/>
<rect x="3360.38" y="53.334" width="53.3361" height="53.3361" fill="#1D1C22"/>
<rect x="3467.05" width="53.3361" height="53.3361" fill="#FF5695"/>
<rect x="3413.71" y="53.3379" width="53.3361" height="53.3361" fill="#FF5695"/>
<rect x="3520.39" width="53.3361" height="53.3361" fill="#1D1C22"/>
<rect x="3467.05" y="53.334" width="53.3361" height="53.3361" fill="#1D1C22"/>
<rect x="3573.72" width="53.3361" height="53.3361" fill="#FF5695"/>
<rect x="3520.39" y="53.334" width="53.3361" height="53.3361" fill="#FF5695"/>
<rect x="3627.06" width="53.3361" height="53.3361" fill="#1D1C22"/>
<rect x="3573.72" y="53.334" width="53.3361" height="53.3361" fill="#1D1C22"/>
<rect x="3680.39" width="53.3361" height="53.3361" fill="#FF5695"/>
<rect x="3627.06" y="53.334" width="53.3361" height="53.3361" fill="#FF5695"/>
<rect x="3733.73" width="53.3361" height="53.3361" fill="#1D1C22"/>
<rect x="3680.39" y="53.334" width="53.3361" height="53.3361" fill="#1D1C22"/>
<rect x="3787.07" width="53.3361" height="53.3361" fill="#FF5695"/>
<rect x="3733.73" y="53.334" width="53.3361" height="53.3361" fill="#FF5695"/>
<rect x="3840.4" width="53.3361" height="53.3361" fill="#1D1C22"/>
<rect x="3787.07" y="53.3379" width="53.3361" height="53.3361" fill="#1D1C22"/>
<rect x="3840.4" y="53.334" width="53.3361" height="53.3361" fill="#FF5695"/>
</g>
<defs>
<clipPath id="clip0_292_492">
<rect width="3850" height="106" fill="white"/>
</clipPath>
</defs>
</svg>
