<svg width="461" height="53" viewBox="0 0 461 53" fill="none" xmlns="http://www.w3.org/2000/svg">
<rect x="0.350098" y="0.390625" width="460.302" height="52.0006" fill="#444444"/>
<path d="M54.9878 43.0586L61.0939 9.44202H65.6899L59.5838 43.0586H54.9878ZM39.9851 34.3918L40.8386 29.7958H66.7076L65.8541 34.3918H39.9851ZM43.1695 43.0586L49.2756 9.44202H53.8716L47.7655 43.0586H43.1695ZM42.1518 22.7048L42.9889 18.1088H68.8579L68.0208 22.7048H42.1518ZM67.9815 43.0586L73.5624 9.44202H79.6521L77.1079 24.8879H77.5183L93.1775 9.44202H100.613L85.1345 24.5268L95.1473 43.0586H87.8265L80.243 28.6468L75.7455 33.0787L74.0713 43.0586H67.9815ZM109.085 9.44202L103.504 43.0586H97.4143L102.995 9.44202H109.085ZM141.456 9.44202L135.875 43.0586H130.458L118.426 20.1606H118.164L114.339 43.0586H108.25L113.83 9.44202H119.28L131.295 32.3564H131.607L135.399 9.44202H141.456ZM143.911 14.5469L144.765 9.44202H171.586L170.733 14.5469H160.342L155.615 43.0586H149.574L154.302 14.5469H143.911ZM191.601 18.8474C191.645 17.3264 191.18 16.161 190.206 15.3512C189.243 14.5414 187.859 14.1365 186.053 14.1365C184.784 14.1365 183.662 14.328 182.688 14.711C181.725 15.0831 180.948 15.6029 180.357 16.2704C179.766 16.927 179.4 17.6766 179.257 18.5192C179.137 19.2086 179.197 19.8104 179.438 20.3247C179.679 20.839 180.045 21.2768 180.538 21.6379C181.041 21.999 181.61 22.2999 182.245 22.5407C182.89 22.7814 183.547 22.9839 184.215 23.148L187.235 23.9359C188.439 24.2313 189.588 24.6308 190.682 25.1341C191.776 25.6266 192.723 26.2613 193.522 27.0382C194.331 27.8042 194.922 28.7289 195.294 29.8122C195.666 30.8956 195.727 32.1649 195.475 33.6203C195.147 35.5901 194.353 37.3245 193.095 38.8237C191.847 40.3119 190.206 41.4773 188.17 42.3199C186.146 43.1516 183.788 43.5674 181.096 43.5674C178.491 43.5674 176.292 43.1626 174.497 42.3528C172.703 41.5321 171.39 40.3448 170.558 38.7909C169.737 37.237 169.475 35.3493 169.77 33.1279H175.761C175.641 34.2988 175.832 35.2727 176.336 36.0497C176.85 36.8266 177.589 37.4066 178.552 37.7896C179.515 38.1726 180.631 38.3641 181.9 38.3641C183.224 38.3641 184.423 38.1671 185.495 37.7732C186.567 37.3683 187.443 36.8102 188.121 36.0989C188.811 35.3767 189.232 34.5341 189.385 33.5711C189.538 32.7066 189.412 31.9844 189.008 31.4044C188.603 30.8244 187.973 30.343 187.12 29.9599C186.277 29.566 185.271 29.2158 184.1 28.9094L180.456 27.9246C177.818 27.2023 175.816 26.119 174.448 24.6745C173.091 23.2301 172.61 21.3041 173.004 18.8967C173.332 16.9051 174.158 15.1706 175.482 13.6933C176.806 12.2051 178.464 11.0506 180.456 10.2299C182.447 9.39825 184.625 8.98242 186.989 8.98242C189.374 8.98242 191.393 9.39825 193.046 10.2299C194.709 11.0616 195.923 12.2215 196.689 13.7098C197.466 15.187 197.724 16.8996 197.461 18.8474H191.601ZM224.267 9.44202H230.357L226.713 31.4044C226.319 33.8118 225.4 35.9293 223.956 37.7568C222.522 39.5842 220.695 41.0123 218.473 42.0409C216.252 43.0586 213.779 43.5674 211.054 43.5674C208.307 43.5674 205.998 43.0586 204.127 42.0409C202.256 41.0123 200.904 39.5842 200.073 37.7568C199.252 35.9293 199.039 33.8118 199.432 31.4044L203.076 9.44202H209.166L205.604 30.8956C205.374 32.2963 205.478 33.5437 205.916 34.638C206.365 35.7214 207.098 36.5749 208.116 37.1987C209.144 37.8224 210.43 38.1343 211.973 38.1343C213.516 38.1343 214.906 37.8224 216.142 37.1987C217.379 36.5749 218.391 35.7214 219.179 34.638C219.967 33.5437 220.476 32.2963 220.705 30.8956L224.267 9.44202ZM255.842 20.177C255.722 19.2906 255.503 18.4973 255.186 17.7969C254.868 17.0856 254.441 16.4838 253.905 15.9913C253.369 15.488 252.718 15.105 251.952 14.8423C251.186 14.5797 250.294 14.4484 249.276 14.4484C247.471 14.4484 245.758 14.9025 244.139 15.8108C242.519 16.719 241.135 18.0541 239.986 19.8159C238.837 21.5667 238.055 23.7006 237.639 26.2175C237.223 28.7562 237.245 30.9065 237.704 32.6683C238.164 34.4301 239.007 35.7706 240.232 36.6898C241.469 37.5981 243.023 38.0522 244.894 38.0522C246.612 38.0522 248.171 37.7239 249.572 37.0674C250.973 36.4108 252.133 35.4806 253.052 34.2769C253.982 33.0623 254.573 31.6397 254.824 30.0092L256.17 30.2226H247.028L247.848 25.4624H261.489L260.799 29.5003C260.329 32.3893 259.306 34.8843 257.73 36.9853C256.165 39.0754 254.212 40.6895 251.87 41.8275C249.539 42.9546 246.984 43.5182 244.204 43.5182C241.119 43.5182 238.52 42.8233 236.408 41.4336C234.307 40.0329 232.818 38.0467 231.943 35.4752C231.067 32.8926 230.925 29.8286 231.516 26.2831C231.954 23.5693 232.731 21.1454 233.847 19.0116C234.974 16.8777 236.353 15.0667 237.983 13.5784C239.625 12.0793 241.447 10.9412 243.449 10.1643C245.452 9.37637 247.553 8.98242 249.752 8.98242C251.602 8.98242 253.287 9.25599 254.808 9.80314C256.329 10.3393 257.631 11.1053 258.715 12.1011C259.809 13.097 260.646 14.2788 261.226 15.6466C261.806 17.0145 262.08 18.5246 262.047 20.177H255.842ZM274.261 9.44202L268.68 43.0586H262.59L268.171 9.44202H274.261ZM273.426 43.0586L279.006 9.44202H285.096L282.732 23.6733H298.31L300.673 9.44202H306.779L301.199 43.0586H295.092L297.456 28.7781H281.879L279.515 43.0586H273.426ZM305.973 43.0586L311.554 9.44202H333.418L332.564 14.5469H316.79L315.28 23.6733H329.921L329.068 28.7781H314.426L312.916 37.9537H328.822L327.968 43.0586H305.973ZM336.518 43.0586H330.018L347.433 9.44202H354.951L361.221 43.0586H354.721L350.207 16.336H349.945L336.518 43.0586ZM338.914 29.8779H356.642L355.821 34.7694H338.093L338.914 29.8779ZM363.8 43.0586L369.381 9.44202H381.987C384.57 9.44202 386.665 9.89068 388.274 10.788C389.882 11.6853 391.004 12.9437 391.639 14.5633C392.274 16.1719 392.41 18.0486 392.049 20.1934C391.699 22.3382 390.933 24.204 389.751 25.7907C388.58 27.3665 387.032 28.5866 385.106 29.4511C383.191 30.3156 380.942 30.7478 378.36 30.7478H369.381L370.235 25.6922H378.409C379.919 25.6922 381.188 25.4843 382.217 25.0685C383.246 24.6417 384.055 24.0234 384.646 23.2137C385.248 22.3929 385.648 21.3862 385.845 20.1934C386.031 19.0006 385.959 17.983 385.631 17.1404C385.314 16.2868 384.707 15.6412 383.809 15.2035C382.923 14.7548 381.725 14.5305 380.214 14.5305H374.634L369.89 43.0586H363.8ZM383.694 27.8261L389.489 43.0586H382.693L377.046 27.8261H383.694ZM395.445 14.5469L396.298 9.44202H423.119L422.266 14.5469H411.875L407.148 43.0586H401.108L405.835 14.5469H395.445Z" fill="#FF5695"/>
</svg>
