<svg width="438" height="439" viewBox="0 0 438 439" fill="none" xmlns="http://www.w3.org/2000/svg">
<path d="M433.83 338.924H384.459H253.693V408.31H384.459H437.833L384.459 373.617L433.83 338.924Z" fill="#E9FF6B"/>
<path d="M0.166992 0H260.365C275.104 0 287.052 11.9482 287.052 26.687V412.313C287.052 427.052 275.104 439 260.365 439H0.166992V0Z" fill="#1D1C22"/>
<path d="M44.6099 66.3091V85.7178H41.672V69.2469H41.5583L36.9146 72.2795V69.4744L41.7573 66.3091H44.6099ZM54.2313 85.8978C53.7132 85.8978 53.2678 85.7146 52.895 85.3482C52.5223 84.9754 52.3359 84.5268 52.3359 84.0025C52.3359 83.4844 52.5223 83.0421 52.895 82.6757C53.2678 82.3029 53.7132 82.1166 54.2313 82.1166C54.7494 82.1166 55.1948 82.3029 55.5675 82.6757C55.9403 83.0421 56.1267 83.4844 56.1267 84.0025C56.1267 84.3499 56.0382 84.669 55.8613 84.9596C55.6907 85.2439 55.4633 85.4714 55.179 85.642C54.8947 85.8125 54.5788 85.8978 54.2313 85.8978ZM75.5842 71.1613V73.4357H67.6331V71.1613H75.5842ZM69.7654 67.6738H72.599V81.4437C72.599 81.9934 72.6811 82.4072 72.8454 82.6852C73.0097 82.9568 73.2213 83.1432 73.4804 83.2443C73.7457 83.3391 74.0332 83.3865 74.3428 83.3865C74.5702 83.3865 74.7692 83.3707 74.9398 83.3391C75.1104 83.3075 75.2431 83.2822 75.3378 83.2633L75.8496 85.6041C75.6853 85.6672 75.4516 85.7304 75.1483 85.7936C74.845 85.8631 74.466 85.901 74.0111 85.9073C73.2656 85.9199 72.5706 85.7873 71.9261 85.5093C71.2817 85.2313 70.7605 84.8017 70.3625 84.2204C69.9644 83.6392 69.7654 82.9095 69.7654 82.0313V67.6738ZM82.1543 86.04C81.2319 86.04 80.3979 85.8694 79.6524 85.5282C78.9069 85.1807 78.3161 84.6785 77.8802 84.0214C77.4506 83.3643 77.2358 82.5588 77.2358 81.6048C77.2358 80.7835 77.3937 80.1074 77.7096 79.5767C78.0255 79.046 78.452 78.6259 78.989 78.3163C79.526 78.0067 80.1262 77.773 80.7896 77.615C81.453 77.4571 82.129 77.337 82.8177 77.2549C83.6895 77.1538 84.3972 77.0717 84.9405 77.0085C85.4838 76.939 85.8787 76.8284 86.1251 76.6768C86.3715 76.5252 86.4947 76.2788 86.4947 75.9376V75.8713C86.4947 75.0436 86.2609 74.4024 85.7934 73.9475C85.3322 73.4926 84.6436 73.2651 83.7275 73.2651C82.7734 73.2651 82.0216 73.4768 81.4719 73.9001C80.9286 74.3171 80.5527 74.7814 80.3442 75.2932L77.6812 74.6867C77.9971 73.8021 78.4583 73.0882 79.0648 72.5449C79.6777 71.9952 80.3821 71.5972 81.1782 71.3508C81.9742 71.0981 82.8114 70.9717 83.6895 70.9717C84.2708 70.9717 84.8868 71.0412 85.5375 71.1802C86.1946 71.3129 86.8074 71.5593 87.3761 71.9194C87.951 72.2795 88.4217 72.7944 88.7881 73.4641C89.1546 74.1275 89.3378 74.9899 89.3378 76.0513V85.7178H86.5705V83.7276H86.4568C86.2736 84.0941 85.9987 84.4542 85.6323 84.808C85.2659 85.1618 84.7952 85.4556 84.2202 85.6893C83.6453 85.9231 82.9567 86.04 82.1543 86.04ZM82.7703 83.7655C83.5537 83.7655 84.2234 83.6107 84.7794 83.3012C85.3417 82.9916 85.7681 82.5872 86.0588 82.0881C86.3557 81.5827 86.5042 81.0425 86.5042 80.4676V78.5911C86.4031 78.6922 86.2072 78.787 85.9166 78.8754C85.6323 78.9576 85.3069 79.0302 84.9405 79.0934C84.5741 79.1503 84.2171 79.204 83.8696 79.2545C83.5221 79.2988 83.2315 79.3367 82.9977 79.3682C82.4481 79.4377 81.9458 79.5546 81.4909 79.7189C81.0423 79.8832 80.6822 80.1201 80.4105 80.4297C80.1452 80.7329 80.0125 81.1373 80.0125 81.6427C80.0125 82.344 80.2715 82.8747 80.7896 83.2348C81.3077 83.5886 81.9679 83.7655 82.7703 83.7655ZM94.9175 80.7803L94.8985 77.3212H95.3913L101.191 71.1613H104.584L97.9691 78.1742H97.5236L94.9175 80.7803ZM92.3113 85.7178V66.3091H95.1449V85.7178H92.3113ZM101.504 85.7178L96.2916 78.7996L98.2439 76.819L104.982 85.7178H101.504ZM112.04 86.0116C110.606 86.0116 109.371 85.7051 108.335 85.0923C107.305 84.4731 106.509 83.6044 105.946 82.4861C105.39 81.3616 105.112 80.0443 105.112 78.5343C105.112 77.0432 105.39 75.7291 105.946 74.5919C106.509 73.4547 107.292 72.567 108.297 71.9289C109.308 71.2908 110.489 70.9717 111.841 70.9717C112.662 70.9717 113.458 71.1075 114.229 71.3792C115 71.6509 115.692 72.0774 116.305 72.6586C116.918 73.2399 117.401 73.9948 117.755 74.9236C118.108 75.846 118.285 76.9674 118.285 78.2879V79.2924H106.714V77.1696H115.509C115.509 76.4241 115.357 75.7639 115.054 75.1889C114.75 74.6077 114.324 74.1496 113.774 73.8148C113.231 73.4799 112.593 73.3125 111.86 73.3125C111.064 73.3125 110.369 73.5084 109.775 73.9001C109.188 74.2855 108.733 74.7909 108.41 75.4164C108.095 76.0355 107.937 76.7084 107.937 77.435V79.0934C107.937 80.0664 108.107 80.894 108.448 81.5764C108.796 82.2587 109.279 82.7799 109.898 83.1401C110.517 83.4939 111.241 83.6708 112.069 83.6708C112.606 83.6708 113.095 83.5949 113.537 83.4433C113.98 83.2854 114.362 83.0516 114.684 82.742C115.006 82.4324 115.253 82.0502 115.423 81.5953L118.105 82.0786C117.89 82.8684 117.505 83.5602 116.949 84.1541C116.399 84.7417 115.708 85.1997 114.874 85.5282C114.046 85.8505 113.101 86.0116 112.04 86.0116ZM131.127 86.04C130.205 86.04 129.371 85.8694 128.625 85.5282C127.88 85.1807 127.289 84.6785 126.853 84.0214C126.423 83.3643 126.208 82.5588 126.208 81.6048C126.208 80.7835 126.366 80.1074 126.682 79.5767C126.998 79.046 127.425 78.6259 127.962 78.3163C128.499 78.0067 129.099 77.773 129.762 77.615C130.426 77.4571 131.102 77.337 131.79 77.2549C132.662 77.1538 133.37 77.0717 133.913 77.0085C134.456 76.939 134.851 76.8284 135.098 76.6768C135.344 76.5252 135.467 76.2788 135.467 75.9376V75.8713C135.467 75.0436 135.234 74.4024 134.766 73.9475C134.305 73.4926 133.616 73.2651 132.7 73.2651C131.746 73.2651 130.994 73.4768 130.445 73.9001C129.901 74.3171 129.525 74.7814 129.317 75.2932L126.654 74.6867C126.97 73.8021 127.431 73.0882 128.037 72.5449C128.65 71.9952 129.355 71.5972 130.151 71.3508C130.947 71.0981 131.784 70.9717 132.662 70.9717C133.243 70.9717 133.859 71.0412 134.51 71.1802C135.167 71.3129 135.78 71.5593 136.349 71.9194C136.924 72.2795 137.394 72.7944 137.761 73.4641C138.127 74.1275 138.31 74.9899 138.31 76.0513V85.7178H135.543V83.7276H135.429C135.246 84.0941 134.971 84.4542 134.605 84.808C134.239 85.1618 133.768 85.4556 133.193 85.6893C132.618 85.9231 131.929 86.04 131.127 86.04ZM131.743 83.7655C132.526 83.7655 133.196 83.6107 133.752 83.3012C134.314 82.9916 134.741 82.5872 135.031 82.0881C135.328 81.5827 135.477 81.0425 135.477 80.4676V78.5911C135.376 78.6922 135.18 78.787 134.889 78.8754C134.605 78.9576 134.28 79.0302 133.913 79.0934C133.547 79.1503 133.19 79.204 132.842 79.2545C132.495 79.2988 132.204 79.3367 131.97 79.3682C131.421 79.4377 130.918 79.5546 130.464 79.7189C130.015 79.8832 129.655 80.1201 129.383 80.4297C129.118 80.7329 128.985 81.1373 128.985 81.6427C128.985 82.344 129.244 82.8747 129.762 83.2348C130.28 83.5886 130.941 83.7655 131.743 83.7655ZM147.546 91.1765V71.1613H150.313V73.521H150.55C150.714 73.2177 150.951 72.8671 151.261 72.4691C151.571 72.071 152 71.7235 152.55 71.4266C153.1 71.1233 153.826 70.9717 154.73 70.9717C155.905 70.9717 156.953 71.2687 157.876 71.8625C158.798 72.4564 159.522 73.3125 160.046 74.4308C160.577 75.5491 160.842 76.8948 160.842 78.4679C160.842 80.0411 160.58 81.39 160.056 82.5146C159.531 83.6329 158.811 84.4953 157.895 85.1018C156.979 85.702 155.933 86.0021 154.758 86.0021C153.873 86.0021 153.15 85.8536 152.588 85.5567C152.032 85.2597 151.596 84.9122 151.28 84.5142C150.964 84.1162 150.721 83.7624 150.55 83.4528H150.38V91.1765H147.546ZM150.323 78.4395C150.323 79.463 150.471 80.3602 150.768 81.131C151.065 81.9017 151.495 82.5051 152.057 82.941C152.619 83.3707 153.308 83.5855 154.123 83.5855C154.97 83.5855 155.677 83.3612 156.246 82.9126C156.814 82.4577 157.244 81.8417 157.535 81.0646C157.832 80.2875 157.98 79.4125 157.98 78.4395C157.98 77.4792 157.835 76.6168 157.544 75.8523C157.26 75.0878 156.83 74.4845 156.255 74.0422C155.687 73.6 154.976 73.3788 154.123 73.3788C153.302 73.3788 152.607 73.5905 152.038 74.0138C151.476 74.4371 151.049 75.0278 150.759 75.786C150.468 76.5441 150.323 77.4286 150.323 78.4395ZM166.05 77.0748V85.7178H163.216V66.3091H166.012V73.5305H166.192C166.533 72.7471 167.054 72.1247 167.756 71.6635C168.457 71.2023 169.373 70.9717 170.504 70.9717C171.502 70.9717 172.374 71.177 173.12 71.5877C173.871 71.9984 174.453 72.6112 174.863 73.4262C175.28 74.2349 175.489 75.2458 175.489 76.4588V85.7178H172.655V76.8C172.655 75.7323 172.38 74.9046 171.831 74.3171C171.281 73.7232 170.517 73.4262 169.537 73.4262C168.868 73.4262 168.267 73.5684 167.737 73.8527C167.212 74.137 166.799 74.554 166.495 75.1036C166.198 75.647 166.05 76.3041 166.05 77.0748ZM184.601 86.0116C183.236 86.0116 182.046 85.6988 181.028 85.0733C180.011 84.4479 179.221 83.5728 178.659 82.4482C178.097 81.3236 177.816 80.0095 177.816 78.5059C177.816 76.9959 178.097 75.6754 178.659 74.5445C179.221 73.4136 180.011 72.5354 181.028 71.9099C182.046 71.2845 183.236 70.9717 184.601 70.9717C185.966 70.9717 187.157 71.2845 188.174 71.9099C189.191 72.5354 189.981 73.4136 190.543 74.5445C191.105 75.6754 191.387 76.9959 191.387 78.5059C191.387 80.0095 191.105 81.3236 190.543 82.4482C189.981 83.5728 189.191 84.4479 188.174 85.0733C187.157 85.6988 185.966 86.0116 184.601 86.0116ZM184.611 83.6329C185.495 83.6329 186.228 83.3991 186.809 82.9316C187.39 82.464 187.82 81.8417 188.098 81.0646C188.382 80.2875 188.525 79.4314 188.525 78.4964C188.525 77.5676 188.382 76.7147 188.098 75.9376C187.82 75.1542 187.39 74.5256 186.809 74.0517C186.228 73.5779 185.495 73.3409 184.611 73.3409C183.72 73.3409 182.981 73.5779 182.393 74.0517C181.812 74.5256 181.379 75.1542 181.095 75.9376C180.817 76.7147 180.678 77.5676 180.678 78.4964C180.678 79.4314 180.817 80.2875 181.095 81.0646C181.379 81.8417 181.812 82.464 182.393 82.9316C182.981 83.3991 183.72 83.6329 184.611 83.6329ZM200.544 71.1613V73.4357H192.593V71.1613H200.544ZM194.725 67.6738H197.559V81.4437C197.559 81.9934 197.641 82.4072 197.805 82.6852C197.969 82.9568 198.181 83.1432 198.44 83.2443C198.705 83.3391 198.993 83.3865 199.302 83.3865C199.53 83.3865 199.729 83.3707 199.899 83.3391C200.07 83.3075 200.203 83.2822 200.297 83.2633L200.809 85.6041C200.645 85.6672 200.411 85.7304 200.108 85.7936C199.805 85.8631 199.426 85.901 198.971 85.9073C198.225 85.9199 197.53 85.7873 196.886 85.5093C196.241 85.2313 195.72 84.8017 195.322 84.2204C194.924 83.6392 194.725 82.9095 194.725 82.0313V67.6738ZM208.853 86.0116C207.488 86.0116 206.297 85.6988 205.28 85.0733C204.263 84.4479 203.473 83.5728 202.911 82.4482C202.349 81.3236 202.067 80.0095 202.067 78.5059C202.067 76.9959 202.349 75.6754 202.911 74.5445C203.473 73.4136 204.263 72.5354 205.28 71.9099C206.297 71.2845 207.488 70.9717 208.853 70.9717C210.218 70.9717 211.408 71.2845 212.426 71.9099C213.443 72.5354 214.233 73.4136 214.795 74.5445C215.357 75.6754 215.638 76.9959 215.638 78.5059C215.638 80.0095 215.357 81.3236 214.795 82.4482C214.233 83.5728 213.443 84.4479 212.426 85.0733C211.408 85.6988 210.218 86.0116 208.853 86.0116ZM208.862 83.6329C209.747 83.6329 210.48 83.3991 211.061 82.9316C211.642 82.464 212.072 81.8417 212.35 81.0646C212.634 80.2875 212.776 79.4314 212.776 78.4964C212.776 77.5676 212.634 76.7147 212.35 75.9376C212.072 75.1542 211.642 74.5256 211.061 74.0517C210.48 73.5779 209.747 73.3409 208.862 73.3409C207.972 73.3409 207.232 73.5779 206.645 74.0517C206.064 74.5256 205.631 75.1542 205.346 75.9376C205.068 76.7147 204.929 77.5676 204.929 78.4964C204.929 79.4314 205.068 80.2875 205.346 81.0646C205.631 81.8417 206.064 82.464 206.645 82.9316C207.232 83.3991 207.972 83.6329 208.862 83.6329Z" fill="#E9FF6B"/>
<path d="M35.313 132.42V130.297L41.8805 123.493C42.5818 122.753 43.1599 122.106 43.6148 121.55C44.076 120.988 44.4203 120.454 44.6478 119.948C44.8752 119.443 44.9889 118.906 44.9889 118.337C44.9889 117.693 44.8373 117.137 44.534 116.669C44.2308 116.195 43.817 115.832 43.2926 115.579C42.7682 115.32 42.1775 115.191 41.5204 115.191C40.8254 115.191 40.2189 115.333 39.7008 115.617C39.1828 115.902 38.7847 116.303 38.5067 116.821C38.2287 117.339 38.0898 117.946 38.0898 118.641H35.2941C35.2941 117.459 35.5657 116.426 36.1091 115.542C36.6524 114.657 37.3979 113.972 38.3456 113.485C39.2933 112.992 40.3705 112.746 41.5773 112.746C42.7966 112.746 43.8707 112.989 44.7994 113.476C45.7345 113.956 46.4642 114.613 46.9886 115.447C47.513 116.274 47.7751 117.209 47.7751 118.252C47.7751 118.972 47.6393 119.677 47.3676 120.365C47.1023 121.054 46.6379 121.822 45.9745 122.668C45.3112 123.508 44.3887 124.529 43.2073 125.729L39.3502 129.766V129.909H48.0879V132.42H35.313ZM54.2313 132.6C53.7132 132.6 53.2678 132.417 52.895 132.05C52.5223 131.678 52.3359 131.229 52.3359 130.705C52.3359 130.187 52.5223 129.744 52.895 129.378C53.2678 129.005 53.7132 128.819 54.2313 128.819C54.7494 128.819 55.1948 129.005 55.5675 129.378C55.9403 129.744 56.1267 130.187 56.1267 130.705C56.1267 131.052 56.0382 131.371 55.8613 131.662C55.6907 131.946 55.4633 132.174 55.179 132.344C54.8947 132.515 54.5788 132.6 54.2313 132.6ZM75.063 132.714C73.6288 132.714 72.3937 132.407 71.3575 131.794C70.3277 131.175 69.5317 130.307 68.9694 129.188C68.4134 128.064 68.1354 126.746 68.1354 125.236C68.1354 123.745 68.4134 122.431 68.9694 121.294C69.5317 120.157 70.3151 119.269 71.3196 118.631C72.3305 117.993 73.512 117.674 74.864 117.674C75.6853 117.674 76.4814 117.81 77.2522 118.081C78.023 118.353 78.7148 118.78 79.3276 119.361C79.9405 119.942 80.4238 120.697 80.7776 121.626C81.1314 122.548 81.3083 123.67 81.3083 124.99V125.995H69.737V123.872H78.5316C78.5316 123.126 78.3799 122.466 78.0767 121.891C77.7734 121.31 77.3469 120.852 76.7973 120.517C76.2539 120.182 75.6158 120.015 74.8829 120.015C74.0869 120.015 73.3919 120.211 72.798 120.602C72.2105 120.988 71.7556 121.493 71.4334 122.119C71.1175 122.738 70.9595 123.411 70.9595 124.137V125.796C70.9595 126.769 71.1301 127.596 71.4713 128.279C71.8187 128.961 72.3021 129.482 72.9212 129.842C73.5404 130.196 74.2638 130.373 75.0914 130.373C75.6285 130.373 76.1181 130.297 76.5604 130.145C77.0026 129.988 77.3848 129.754 77.7071 129.444C78.0293 129.135 78.2757 128.752 78.4463 128.297L81.1282 128.781C80.9134 129.571 80.528 130.262 79.972 130.856C79.4224 131.444 78.7306 131.902 77.8966 132.23C77.0689 132.553 76.1244 132.714 75.063 132.714ZM89.1009 132.704C87.9257 132.704 86.8769 132.404 85.9545 131.804C85.0384 131.197 84.3182 130.335 83.7938 129.217C83.2757 128.092 83.0167 126.743 83.0167 125.17C83.0167 123.597 83.2789 122.251 83.8033 121.133C84.334 120.015 85.0605 119.159 85.983 118.565C86.9054 117.971 87.951 117.674 89.1198 117.674C90.0233 117.674 90.7498 117.825 91.2995 118.129C91.8555 118.426 92.2851 118.773 92.5884 119.171C92.8979 119.569 93.138 119.92 93.3086 120.223H93.4792V113.011H96.3128V132.42H93.5455V130.155H93.3086C93.138 130.465 92.8916 130.818 92.5694 131.216C92.2535 131.614 91.8176 131.962 91.2616 132.259C90.7056 132.556 89.9854 132.704 89.1009 132.704ZM89.7263 130.288C90.5413 130.288 91.23 130.073 91.7923 129.643C92.3609 129.207 92.7905 128.604 93.0812 127.833C93.3781 127.062 93.5266 126.165 93.5266 125.142C93.5266 124.131 93.3813 123.246 93.0906 122.488C92.8 121.73 92.3735 121.139 91.8113 120.716C91.249 120.293 90.554 120.081 89.7263 120.081C88.8734 120.081 88.1626 120.302 87.594 120.744C87.0254 121.187 86.5958 121.79 86.3052 122.554C86.0209 123.319 85.8787 124.181 85.8787 125.142C85.8787 126.115 86.024 126.99 86.3146 127.767C86.6053 128.544 87.0349 129.16 87.6035 129.615C88.1784 130.063 88.886 130.288 89.7263 130.288ZM99.5564 132.42V117.863H102.39V132.42H99.5564ZM100.987 115.617C100.495 115.617 100.071 115.453 99.7175 115.125C99.3701 114.79 99.1963 114.392 99.1963 113.93C99.1963 113.463 99.3701 113.065 99.7175 112.736C100.071 112.402 100.495 112.234 100.987 112.234C101.48 112.234 101.9 112.402 102.248 112.736C102.602 113.065 102.779 113.463 102.779 113.93C102.779 114.392 102.602 114.79 102.248 115.125C101.9 115.453 101.48 115.617 100.987 115.617ZM112.196 117.863V120.138H104.245V117.863H112.196ZM106.378 114.376H109.211V128.146C109.211 128.695 109.293 129.109 109.458 129.387C109.622 129.659 109.834 129.845 110.093 129.946C110.358 130.041 110.645 130.089 110.955 130.089C111.182 130.089 111.381 130.073 111.552 130.041C111.723 130.01 111.855 129.984 111.95 129.965L112.462 132.306C112.298 132.369 112.064 132.433 111.761 132.496C111.457 132.565 111.078 132.603 110.623 132.609C109.878 132.622 109.183 132.489 108.538 132.211C107.894 131.933 107.373 131.504 106.975 130.923C106.577 130.341 106.378 129.612 106.378 128.733V114.376ZM127.587 117.863V120.138H119.636V117.863H127.587ZM121.768 114.376H124.602V128.146C124.602 128.695 124.684 129.109 124.848 129.387C125.013 129.659 125.224 129.845 125.483 129.946C125.749 130.041 126.036 130.089 126.346 130.089C126.573 130.089 126.772 130.073 126.943 130.041C127.113 130.01 127.246 129.984 127.341 129.965L127.853 132.306C127.688 132.369 127.455 132.433 127.151 132.496C126.848 132.565 126.469 132.603 126.014 132.609C125.269 132.622 124.574 132.489 123.929 132.211C123.285 131.933 122.764 131.504 122.366 130.923C121.968 130.341 121.768 129.612 121.768 128.733V114.376ZM133.068 123.777V132.42H130.234V113.011H133.03V120.233H133.21C133.551 119.449 134.072 118.827 134.773 118.366C135.475 117.904 136.391 117.674 137.522 117.674C138.52 117.674 139.392 117.879 140.137 118.29C140.889 118.701 141.47 119.313 141.881 120.128C142.298 120.937 142.507 121.948 142.507 123.161V132.42H139.673V123.502C139.673 122.434 139.398 121.607 138.848 121.019C138.299 120.425 137.534 120.128 136.555 120.128C135.885 120.128 135.285 120.271 134.754 120.555C134.23 120.839 133.816 121.256 133.513 121.806C133.216 122.349 133.068 123.006 133.068 123.777ZM151.761 132.714C150.327 132.714 149.092 132.407 148.055 131.794C147.026 131.175 146.23 130.307 145.667 129.188C145.111 128.064 144.833 126.746 144.833 125.236C144.833 123.745 145.111 122.431 145.667 121.294C146.23 120.157 147.013 119.269 148.018 118.631C149.028 117.993 150.21 117.674 151.562 117.674C152.383 117.674 153.179 117.81 153.95 118.081C154.721 118.353 155.413 118.78 156.026 119.361C156.638 119.942 157.122 120.697 157.475 121.626C157.829 122.548 158.006 123.67 158.006 124.99V125.995H146.435V123.872H155.229C155.229 123.126 155.078 122.466 154.775 121.891C154.471 121.31 154.045 120.852 153.495 120.517C152.952 120.182 152.314 120.015 151.581 120.015C150.785 120.015 150.09 120.211 149.496 120.602C148.908 120.988 148.453 121.493 148.131 122.119C147.815 122.738 147.657 123.411 147.657 124.137V125.796C147.657 126.769 147.828 127.596 148.169 128.279C148.517 128.961 149 129.482 149.619 129.842C150.238 130.196 150.962 130.373 151.789 130.373C152.326 130.373 152.816 130.297 153.258 130.145C153.701 129.988 154.083 129.754 154.405 129.444C154.727 129.135 154.974 128.752 155.144 128.297L157.826 128.781C157.611 129.571 157.226 130.262 156.67 130.856C156.12 131.444 155.428 131.902 154.594 132.23C153.767 132.553 152.822 132.714 151.761 132.714ZM79.6972 145.417L77.129 145.872C77.0216 145.544 76.851 145.231 76.6172 144.934C76.3898 144.637 76.0802 144.394 75.6885 144.204C75.2968 144.015 74.8071 143.92 74.2196 143.92C73.4172 143.92 72.7475 144.1 72.2105 144.46C71.6734 144.814 71.4049 145.272 71.4049 145.834C71.4049 146.321 71.585 146.712 71.9451 147.009C72.3052 147.306 72.8865 147.55 73.6889 147.739L76.0012 148.27C77.3406 148.579 78.3389 149.056 78.9959 149.701C79.653 150.345 79.9815 151.182 79.9815 152.212C79.9815 153.084 79.7288 153.861 79.2234 154.543C78.7242 155.22 78.0261 155.75 77.129 156.136C76.2381 156.521 75.2052 156.714 74.03 156.714C72.4 156.714 71.0701 156.366 70.0402 155.671C69.0104 154.97 68.3786 153.975 68.1449 152.686L70.8837 152.269C71.0543 152.983 71.4049 153.523 71.9356 153.89C72.4663 154.25 73.1581 154.43 74.0111 154.43C74.9398 154.43 75.6822 154.237 76.2381 153.852C76.7941 153.46 77.0721 152.983 77.0721 152.421C77.0721 151.966 76.9015 151.584 76.5604 151.274C76.2255 150.964 75.7106 150.731 75.0156 150.573L72.5516 150.032C71.1933 149.723 70.1887 149.23 69.538 148.554C68.8935 147.878 68.5713 147.022 68.5713 145.986C68.5713 145.127 68.8114 144.375 69.2916 143.73C69.7717 143.086 70.4351 142.584 71.2817 142.224C72.1283 141.857 73.0981 141.674 74.1911 141.674C75.7643 141.674 77.0026 142.015 77.9061 142.697C78.8095 143.373 79.4066 144.28 79.6972 145.417ZM88.428 156.714C87.0191 156.714 85.8061 156.395 84.7889 155.757C83.778 155.112 83.0009 154.224 82.4575 153.094C81.9142 151.963 81.6425 150.667 81.6425 149.208C81.6425 147.73 81.9205 146.425 82.4765 145.294C83.0325 144.157 83.8159 143.269 84.8268 142.631C85.8376 141.993 87.0286 141.674 88.3996 141.674C89.5052 141.674 90.4908 141.879 91.3564 142.29C92.2219 142.694 92.92 143.263 93.4508 143.996C93.9878 144.729 94.3068 145.585 94.4079 146.564H91.6501C91.4985 145.882 91.151 145.294 90.6077 144.801C90.0707 144.308 89.3504 144.062 88.4469 144.062C87.6572 144.062 86.9654 144.271 86.3715 144.688C85.7839 145.098 85.3259 145.686 84.9974 146.45C84.6688 147.208 84.5046 148.106 84.5046 149.142C84.5046 150.203 84.6657 151.119 84.9879 151.89C85.3101 152.661 85.765 153.258 86.3526 153.681C86.9464 154.104 87.6446 154.316 88.4469 154.316C88.984 154.316 89.4705 154.218 89.9064 154.022C90.3486 153.82 90.7182 153.533 91.0152 153.16C91.3185 152.787 91.5301 152.339 91.6501 151.814H94.4079C94.3068 152.756 94.0004 153.596 93.4887 154.335C92.9769 155.074 92.2914 155.655 91.4322 156.079C90.5793 156.502 89.5779 156.714 88.428 156.714ZM96.6376 156.42V141.863H99.3764V144.176H99.528C99.7934 143.392 100.261 142.776 100.931 142.328C101.607 141.873 102.371 141.645 103.224 141.645C103.401 141.645 103.609 141.652 103.849 141.664C104.096 141.677 104.289 141.693 104.428 141.712V144.422C104.314 144.391 104.112 144.356 103.821 144.318C103.53 144.274 103.24 144.252 102.949 144.252C102.279 144.252 101.682 144.394 101.158 144.678C100.64 144.956 100.229 145.345 99.926 145.844C99.6228 146.336 99.4711 146.899 99.4711 147.531V156.42H96.6376ZM111.832 156.714C110.397 156.714 109.162 156.407 108.126 155.794C107.096 155.175 106.3 154.307 105.738 153.188C105.182 152.064 104.904 150.746 104.904 149.236C104.904 147.745 105.182 146.431 105.738 145.294C106.3 144.157 107.084 143.269 108.088 142.631C109.099 141.993 110.281 141.674 111.633 141.674C112.454 141.674 113.25 141.81 114.021 142.081C114.792 142.353 115.483 142.78 116.096 143.361C116.709 143.942 117.192 144.697 117.546 145.626C117.9 146.548 118.077 147.67 118.077 148.99V149.995H106.506V147.872H115.3C115.3 147.126 115.148 146.466 114.845 145.891C114.542 145.31 114.116 144.852 113.566 144.517C113.023 144.182 112.384 144.015 111.652 144.015C110.855 144.015 110.16 144.211 109.567 144.602C108.979 144.988 108.524 145.493 108.202 146.119C107.886 146.738 107.728 147.411 107.728 148.137V149.796C107.728 150.769 107.899 151.596 108.24 152.279C108.587 152.961 109.071 153.482 109.69 153.842C110.309 154.196 111.032 154.373 111.86 154.373C112.397 154.373 112.887 154.297 113.329 154.145C113.771 153.988 114.153 153.754 114.476 153.444C114.798 153.135 115.044 152.752 115.215 152.297L117.897 152.781C117.682 153.571 117.297 154.262 116.741 154.856C116.191 155.444 115.499 155.902 114.665 156.23C113.838 156.553 112.893 156.714 111.832 156.714ZM126.694 156.714C125.26 156.714 124.025 156.407 122.988 155.794C121.959 155.175 121.163 154.307 120.6 153.188C120.044 152.064 119.766 150.746 119.766 149.236C119.766 147.745 120.044 146.431 120.6 145.294C121.163 144.157 121.946 143.269 122.951 142.631C123.961 141.993 125.143 141.674 126.495 141.674C127.316 141.674 128.112 141.81 128.883 142.081C129.654 142.353 130.346 142.78 130.959 143.361C131.571 143.942 132.055 144.697 132.408 145.626C132.762 146.548 132.939 147.67 132.939 148.99V149.995H121.368V147.872H130.162C130.162 147.126 130.011 146.466 129.708 145.891C129.404 145.31 128.978 144.852 128.428 144.517C127.885 144.182 127.247 144.015 126.514 144.015C125.718 144.015 125.023 144.211 124.429 144.602C123.841 144.988 123.386 145.493 123.064 146.119C122.748 146.738 122.59 147.411 122.59 148.137V149.796C122.59 150.769 122.761 151.596 123.102 152.279C123.45 152.961 123.933 153.482 124.552 153.842C125.171 154.196 125.895 154.373 126.722 154.373C127.259 154.373 127.749 154.297 128.191 154.145C128.634 153.988 129.016 153.754 129.338 153.444C129.66 153.135 129.907 152.752 130.077 152.297L132.759 152.781C132.544 153.571 132.159 154.262 131.603 154.856C131.053 155.444 130.361 155.902 129.528 156.23C128.7 156.553 127.755 156.714 126.694 156.714ZM138.116 147.777V156.42H135.283V141.863H138.002V144.233H138.182C138.517 143.462 139.042 142.843 139.756 142.375C140.476 141.908 141.383 141.674 142.476 141.674C143.467 141.674 144.336 141.882 145.082 142.299C145.827 142.71 146.405 143.323 146.816 144.138C147.227 144.953 147.432 145.961 147.432 147.161V156.42H144.598V147.502C144.598 146.447 144.324 145.623 143.774 145.029C143.224 144.428 142.469 144.128 141.509 144.128C140.852 144.128 140.267 144.271 139.756 144.555C139.25 144.839 138.849 145.256 138.552 145.806C138.261 146.349 138.116 147.006 138.116 147.777Z" fill="#E9FF6B"/>
<path d="M41.672 203.405C40.3705 203.405 39.208 203.181 38.1845 202.732C37.1673 202.284 36.3618 201.661 35.7679 200.865C35.1803 200.063 34.8644 199.134 34.8202 198.079H37.796C37.8339 198.654 38.0266 199.153 38.3741 199.576C38.7279 199.993 39.1891 200.316 39.7577 200.543C40.3263 200.77 40.9581 200.884 41.6531 200.884C42.4175 200.884 43.0936 200.751 43.6811 200.486C44.275 200.221 44.7394 199.851 45.0742 199.377C45.4091 198.897 45.5765 198.344 45.5765 197.719C45.5765 197.068 45.4091 196.496 45.0742 196.004C44.7457 195.504 44.2624 195.113 43.6243 194.828C42.9925 194.544 42.228 194.402 41.3309 194.402H39.6913V192.014H41.3309C42.0511 192.014 42.6829 191.884 43.2262 191.625C43.7759 191.366 44.2055 191.006 44.5151 190.545C44.8247 190.077 44.9795 189.531 44.9795 188.905C44.9795 188.305 44.8436 187.784 44.572 187.342C44.3066 186.893 43.9275 186.542 43.4347 186.29C42.9482 186.037 42.3733 185.911 41.7099 185.911C41.0781 185.911 40.4874 186.028 39.9377 186.261C39.3944 186.489 38.9521 186.817 38.611 187.247C38.2698 187.67 38.0866 188.179 38.0613 188.773H35.2277C35.2593 187.724 35.5689 186.801 36.1565 186.005C36.7503 185.209 37.5338 184.587 38.5067 184.138C39.4797 183.69 40.5601 183.466 41.7478 183.466C42.9925 183.466 44.0665 183.709 44.97 184.195C45.8798 184.675 46.5811 185.317 47.0739 186.119C47.573 186.922 47.8194 187.8 47.8131 188.754C47.8194 189.84 47.5161 190.763 46.9033 191.521C46.2967 192.279 45.4881 192.788 44.4772 193.047V193.198C45.766 193.394 46.7643 193.906 47.4719 194.734C48.1858 195.561 48.5396 196.588 48.5333 197.814C48.5396 198.881 48.2427 199.839 47.6425 200.685C47.0486 201.532 46.2367 202.198 45.2069 202.685C44.1771 203.165 42.9988 203.405 41.672 203.405ZM54.2313 203.32C53.7132 203.32 53.2678 203.136 52.895 202.77C52.5223 202.397 52.3359 201.949 52.3359 201.424C52.3359 200.906 52.5223 200.464 52.895 200.098C53.2678 199.725 53.7132 199.538 54.2313 199.538C54.7494 199.538 55.1948 199.725 55.5675 200.098C55.9403 200.464 56.1267 200.906 56.1267 201.424C56.1267 201.772 56.0382 202.091 55.8613 202.381C55.6907 202.666 55.4633 202.893 55.179 203.064C54.8947 203.234 54.5788 203.32 54.2313 203.32ZM75.5842 188.583V190.858H67.6331V188.583H75.5842ZM69.7654 185.096H72.599V198.866C72.599 199.415 72.6811 199.829 72.8454 200.107C73.0097 200.379 73.2213 200.565 73.4804 200.666C73.7457 200.761 74.0332 200.808 74.3428 200.808C74.5702 200.808 74.7692 200.793 74.9398 200.761C75.1104 200.729 75.2431 200.704 75.3378 200.685L75.8496 203.026C75.6853 203.089 75.4516 203.152 75.1483 203.215C74.845 203.285 74.466 203.323 74.0111 203.329C73.2656 203.342 72.5706 203.209 71.9261 202.931C71.2817 202.653 70.7605 202.224 70.3625 201.642C69.9644 201.061 69.7654 200.331 69.7654 199.453V185.096ZM82.1543 203.462C81.2319 203.462 80.3979 203.291 79.6524 202.95C78.9069 202.603 78.3161 202.1 77.8802 201.443C77.4506 200.786 77.2358 199.981 77.2358 199.027C77.2358 198.205 77.3937 197.529 77.7096 196.999C78.0255 196.468 78.452 196.048 78.989 195.738C79.526 195.429 80.1262 195.195 80.7896 195.037C81.453 194.879 82.129 194.759 82.8177 194.677C83.6895 194.576 84.3972 194.494 84.9405 194.43C85.4838 194.361 85.8787 194.25 86.1251 194.099C86.3715 193.947 86.4947 193.701 86.4947 193.359V193.293C86.4947 192.465 86.2609 191.824 85.7934 191.369C85.3322 190.914 84.6436 190.687 83.7275 190.687C82.7734 190.687 82.0216 190.899 81.4719 191.322C80.9286 191.739 80.5527 192.203 80.3442 192.715L77.6812 192.109C77.9971 191.224 78.4583 190.51 79.0648 189.967C79.6777 189.417 80.3821 189.019 81.1782 188.773C81.9742 188.52 82.8114 188.394 83.6895 188.394C84.2708 188.394 84.8868 188.463 85.5375 188.602C86.1946 188.735 86.8074 188.981 87.3761 189.341C87.951 189.701 88.4217 190.216 88.7881 190.886C89.1546 191.549 89.3378 192.412 89.3378 193.473V203.14H86.5705V201.149H86.4568C86.2736 201.516 85.9987 201.876 85.6323 202.23C85.2659 202.584 84.7952 202.877 84.2202 203.111C83.6453 203.345 82.9567 203.462 82.1543 203.462ZM82.7703 201.187C83.5537 201.187 84.2234 201.033 84.7794 200.723C85.3417 200.413 85.7681 200.009 86.0588 199.51C86.3557 199.005 86.5042 198.464 86.5042 197.889V196.013C86.4031 196.114 86.2072 196.209 85.9166 196.297C85.6323 196.379 85.3069 196.452 84.9405 196.515C84.5741 196.572 84.2171 196.626 83.8696 196.676C83.5221 196.721 83.2315 196.759 82.9977 196.79C82.4481 196.86 81.9458 196.977 81.4909 197.141C81.0423 197.305 80.6822 197.542 80.4105 197.852C80.1452 198.155 80.0125 198.559 80.0125 199.065C80.0125 199.766 80.2715 200.297 80.7896 200.657C81.3077 201.011 81.9679 201.187 82.7703 201.187ZM94.9175 198.202L94.8985 194.743H95.3913L101.191 188.583H104.584L97.9691 195.596H97.5236L94.9175 198.202ZM92.3113 203.14V183.731H95.1449V203.14H92.3113ZM101.504 203.14L96.2916 196.222L98.2439 194.241L104.982 203.14H101.504ZM112.04 203.433C110.606 203.433 109.371 203.127 108.335 202.514C107.305 201.895 106.509 201.026 105.946 199.908C105.39 198.783 105.112 197.466 105.112 195.956C105.112 194.465 105.39 193.151 105.946 192.014C106.509 190.877 107.292 189.989 108.297 189.351C109.308 188.713 110.489 188.394 111.841 188.394C112.662 188.394 113.458 188.529 114.229 188.801C115 189.073 115.692 189.499 116.305 190.08C116.918 190.662 117.401 191.417 117.755 192.345C118.108 193.268 118.285 194.389 118.285 195.71V196.714H106.714V194.591H115.509C115.509 193.846 115.357 193.186 115.054 192.611C114.75 192.03 114.324 191.572 113.774 191.237C113.231 190.902 112.593 190.734 111.86 190.734C111.064 190.734 110.369 190.93 109.775 191.322C109.188 191.707 108.733 192.213 108.41 192.838C108.095 193.457 107.937 194.13 107.937 194.857V196.515C107.937 197.488 108.107 198.316 108.448 198.998C108.796 199.681 109.279 200.202 109.898 200.562C110.517 200.916 111.241 201.093 112.069 201.093C112.606 201.093 113.095 201.017 113.537 200.865C113.98 200.707 114.362 200.473 114.684 200.164C115.006 199.854 115.253 199.472 115.423 199.017L118.105 199.501C117.89 200.29 117.505 200.982 116.949 201.576C116.399 202.164 115.708 202.622 114.874 202.95C114.046 203.272 113.101 203.433 112.04 203.433ZM131.127 203.462C130.205 203.462 129.371 203.291 128.625 202.95C127.88 202.603 127.289 202.1 126.853 201.443C126.423 200.786 126.208 199.981 126.208 199.027C126.208 198.205 126.366 197.529 126.682 196.999C126.998 196.468 127.425 196.048 127.962 195.738C128.499 195.429 129.099 195.195 129.762 195.037C130.426 194.879 131.102 194.759 131.79 194.677C132.662 194.576 133.37 194.494 133.913 194.43C134.456 194.361 134.851 194.25 135.098 194.099C135.344 193.947 135.467 193.701 135.467 193.359V193.293C135.467 192.465 135.234 191.824 134.766 191.369C134.305 190.914 133.616 190.687 132.7 190.687C131.746 190.687 130.994 190.899 130.445 191.322C129.901 191.739 129.525 192.203 129.317 192.715L126.654 192.109C126.97 191.224 127.431 190.51 128.037 189.967C128.65 189.417 129.355 189.019 130.151 188.773C130.947 188.52 131.784 188.394 132.662 188.394C133.243 188.394 133.859 188.463 134.51 188.602C135.167 188.735 135.78 188.981 136.349 189.341C136.924 189.701 137.394 190.216 137.761 190.886C138.127 191.549 138.31 192.412 138.31 193.473V203.14H135.543V201.149H135.429C135.246 201.516 134.971 201.876 134.605 202.23C134.239 202.584 133.768 202.877 133.193 203.111C132.618 203.345 131.929 203.462 131.127 203.462ZM131.743 201.187C132.526 201.187 133.196 201.033 133.752 200.723C134.314 200.413 134.741 200.009 135.031 199.51C135.328 199.005 135.477 198.464 135.477 197.889V196.013C135.376 196.114 135.18 196.209 134.889 196.297C134.605 196.379 134.28 196.452 133.913 196.515C133.547 196.572 133.19 196.626 132.842 196.676C132.495 196.721 132.204 196.759 131.97 196.79C131.421 196.86 130.918 196.977 130.464 197.141C130.015 197.305 129.655 197.542 129.383 197.852C129.118 198.155 128.985 198.559 128.985 199.065C128.985 199.766 129.244 200.297 129.762 200.657C130.28 201.011 130.941 201.187 131.743 201.187ZM79.6972 216.137L77.129 216.592C77.0216 216.263 76.851 215.951 76.6172 215.654C76.3898 215.357 76.0802 215.113 75.6885 214.924C75.2968 214.734 74.8071 214.64 74.2196 214.64C73.4172 214.64 72.7475 214.82 72.2105 215.18C71.6734 215.534 71.4049 215.992 71.4049 216.554C71.4049 217.04 71.585 217.432 71.9451 217.729C72.3052 218.026 72.8865 218.269 73.6889 218.459L76.0012 218.99C77.3406 219.299 78.3389 219.776 78.9959 220.421C79.653 221.065 79.9815 221.902 79.9815 222.932C79.9815 223.804 79.7288 224.581 79.2234 225.263C78.7242 225.939 78.0261 226.47 77.129 226.855C76.2381 227.241 75.2052 227.433 74.03 227.433C72.4 227.433 71.0701 227.086 70.0402 226.391C69.0104 225.69 68.3786 224.695 68.1449 223.406L70.8837 222.989C71.0543 223.703 71.4049 224.243 71.9356 224.609C72.4663 224.969 73.1581 225.149 74.0111 225.149C74.9398 225.149 75.6822 224.957 76.2381 224.571C76.7941 224.18 77.0721 223.703 77.0721 223.14C77.0721 222.686 76.9015 222.303 76.5604 221.994C76.2255 221.684 75.7106 221.45 75.0156 221.292L72.5516 220.752C71.1933 220.443 70.1887 219.95 69.538 219.274C68.8935 218.598 68.5713 217.742 68.5713 216.706C68.5713 215.846 68.8114 215.095 69.2916 214.45C69.7717 213.806 70.4351 213.303 71.2817 212.943C72.1283 212.577 73.0981 212.394 74.1911 212.394C75.7643 212.394 77.0026 212.735 77.9061 213.417C78.8095 214.093 79.4066 215 79.6972 216.137ZM88.428 227.433C87.0191 227.433 85.8061 227.114 84.7889 226.476C83.778 225.832 83.0009 224.944 82.4575 223.813C81.9142 222.682 81.6425 221.387 81.6425 219.928C81.6425 218.449 81.9205 217.145 82.4765 216.014C83.0325 214.877 83.8159 213.989 84.8268 213.351C85.8376 212.713 87.0286 212.394 88.3996 212.394C89.5052 212.394 90.4908 212.599 91.3564 213.01C92.2219 213.414 92.92 213.983 93.4508 214.715C93.9878 215.448 94.3068 216.304 94.4079 217.284H91.6501C91.4985 216.601 91.151 216.014 90.6077 215.521C90.0707 215.028 89.3504 214.782 88.4469 214.782C87.6572 214.782 86.9654 214.99 86.3715 215.407C85.7839 215.818 85.3259 216.405 84.9974 217.17C84.6688 217.928 84.5046 218.825 84.5046 219.861C84.5046 220.923 84.6657 221.839 84.9879 222.61C85.3101 223.38 85.765 223.978 86.3526 224.401C86.9464 224.824 87.6446 225.036 88.4469 225.036C88.984 225.036 89.4705 224.938 89.9064 224.742C90.3486 224.54 90.7182 224.252 91.0152 223.88C91.3185 223.507 91.5301 223.058 91.6501 222.534H94.4079C94.3068 223.475 94.0004 224.316 93.4887 225.055C92.9769 225.794 92.2914 226.375 91.4322 226.798C90.5793 227.222 89.5779 227.433 88.428 227.433ZM96.6376 227.14V212.583H99.3764V214.895H99.528C99.7934 214.112 100.261 213.496 100.931 213.047C101.607 212.593 102.371 212.365 103.224 212.365C103.401 212.365 103.609 212.371 103.849 212.384C104.096 212.397 104.289 212.413 104.428 212.431V215.142C104.314 215.11 104.112 215.076 103.821 215.038C103.53 214.993 103.24 214.971 102.949 214.971C102.279 214.971 101.682 215.113 101.158 215.398C100.64 215.676 100.229 216.064 99.926 216.563C99.6228 217.056 99.4711 217.619 99.4711 218.25V227.14H96.6376ZM111.832 227.433C110.397 227.433 109.162 227.127 108.126 226.514C107.096 225.895 106.3 225.026 105.738 223.908C105.182 222.783 104.904 221.466 104.904 219.956C104.904 218.465 105.182 217.151 105.738 216.014C106.3 214.877 107.084 213.989 108.088 213.351C109.099 212.713 110.281 212.394 111.633 212.394C112.454 212.394 113.25 212.529 114.021 212.801C114.792 213.073 115.483 213.499 116.096 214.08C116.709 214.662 117.192 215.417 117.546 216.345C117.9 217.268 118.077 218.389 118.077 219.71V220.714H106.506V218.591H115.3C115.3 217.846 115.148 217.186 114.845 216.611C114.542 216.03 114.116 215.572 113.566 215.237C113.023 214.902 112.384 214.734 111.652 214.734C110.855 214.734 110.16 214.93 109.567 215.322C108.979 215.707 108.524 216.213 108.202 216.838C107.886 217.457 107.728 218.13 107.728 218.857V220.515C107.728 221.488 107.899 222.316 108.24 222.998C108.587 223.681 109.071 224.202 109.69 224.562C110.309 224.916 111.032 225.093 111.86 225.093C112.397 225.093 112.887 225.017 113.329 224.865C113.771 224.707 114.153 224.473 114.476 224.164C114.798 223.854 115.044 223.472 115.215 223.017L117.897 223.501C117.682 224.29 117.297 224.982 116.741 225.576C116.191 226.164 115.499 226.622 114.665 226.95C113.838 227.272 112.893 227.433 111.832 227.433ZM126.694 227.433C125.26 227.433 124.025 227.127 122.988 226.514C121.959 225.895 121.163 225.026 120.6 223.908C120.044 222.783 119.766 221.466 119.766 219.956C119.766 218.465 120.044 217.151 120.6 216.014C121.163 214.877 121.946 213.989 122.951 213.351C123.961 212.713 125.143 212.394 126.495 212.394C127.316 212.394 128.112 212.529 128.883 212.801C129.654 213.073 130.346 213.499 130.959 214.08C131.571 214.662 132.055 215.417 132.408 216.345C132.762 217.268 132.939 218.389 132.939 219.71V220.714H121.368V218.591H130.162C130.162 217.846 130.011 217.186 129.708 216.611C129.404 216.03 128.978 215.572 128.428 215.237C127.885 214.902 127.247 214.734 126.514 214.734C125.718 214.734 125.023 214.93 124.429 215.322C123.841 215.707 123.386 216.213 123.064 216.838C122.748 217.457 122.59 218.13 122.59 218.857V220.515C122.59 221.488 122.761 222.316 123.102 222.998C123.45 223.681 123.933 224.202 124.552 224.562C125.171 224.916 125.895 225.093 126.722 225.093C127.259 225.093 127.749 225.017 128.191 224.865C128.634 224.707 129.016 224.473 129.338 224.164C129.66 223.854 129.907 223.472 130.077 223.017L132.759 223.501C132.544 224.29 132.159 224.982 131.603 225.576C131.053 226.164 130.361 226.622 129.528 226.95C128.7 227.272 127.755 227.433 126.694 227.433ZM138.116 218.497V227.14H135.283V212.583H138.002V214.952H138.182C138.517 214.182 139.042 213.562 139.756 213.095C140.476 212.627 141.383 212.394 142.476 212.394C143.467 212.394 144.336 212.602 145.082 213.019C145.827 213.43 146.405 214.043 146.816 214.858C147.227 215.673 147.432 216.68 147.432 217.881V227.14H144.598V218.222C144.598 217.167 144.324 216.342 143.774 215.748C143.224 215.148 142.469 214.848 141.509 214.848C140.852 214.848 140.267 214.99 139.756 215.275C139.25 215.559 138.849 215.976 138.552 216.526C138.261 217.069 138.116 217.726 138.116 218.497ZM161.339 216.137L158.771 216.592C158.664 216.263 158.493 215.951 158.259 215.654C158.032 215.357 157.722 215.113 157.331 214.924C156.939 214.734 156.449 214.64 155.862 214.64C155.059 214.64 154.39 214.82 153.853 215.18C153.316 215.534 153.047 215.992 153.047 216.554C153.047 217.04 153.227 217.432 153.587 217.729C153.948 218.026 154.529 218.269 155.331 218.459L157.643 218.99C158.983 219.299 159.981 219.776 160.638 220.421C161.295 221.065 161.624 221.902 161.624 222.932C161.624 223.804 161.371 224.581 160.866 225.263C160.367 225.939 159.668 226.47 158.771 226.855C157.88 227.241 156.847 227.433 155.672 227.433C154.042 227.433 152.712 227.086 151.683 226.391C150.653 225.69 150.021 224.695 149.787 223.406L152.526 222.989C152.697 223.703 153.047 224.243 153.578 224.609C154.109 224.969 154.8 225.149 155.653 225.149C156.582 225.149 157.324 224.957 157.88 224.571C158.436 224.18 158.714 223.703 158.714 223.14C158.714 222.686 158.544 222.303 158.203 221.994C157.868 221.684 157.353 221.45 156.658 221.292L154.194 220.752C152.836 220.443 151.831 219.95 151.18 219.274C150.536 218.598 150.214 217.742 150.214 216.706C150.214 215.846 150.454 215.095 150.934 214.45C151.414 213.806 152.077 213.303 152.924 212.943C153.771 212.577 154.74 212.394 155.833 212.394C157.407 212.394 158.645 212.735 159.548 213.417C160.452 214.093 161.049 215 161.339 216.137ZM166.772 218.497V227.14H163.939V207.731H166.734V214.952H166.914C167.256 214.169 167.777 213.547 168.478 213.085C169.179 212.624 170.096 212.394 171.226 212.394C172.225 212.394 173.097 212.599 173.842 213.01C174.594 213.42 175.175 214.033 175.586 214.848C176.003 215.657 176.211 216.668 176.211 217.881V227.14H173.378V218.222C173.378 217.154 173.103 216.327 172.553 215.739C172.004 215.145 171.239 214.848 170.26 214.848C169.59 214.848 168.99 214.99 168.459 215.275C167.935 215.559 167.521 215.976 167.218 216.526C166.921 217.069 166.772 217.726 166.772 218.497ZM185.324 227.433C183.959 227.433 182.768 227.121 181.751 226.495C180.734 225.87 179.944 224.995 179.382 223.87C178.819 222.746 178.538 221.431 178.538 219.928C178.538 218.418 178.819 217.097 179.382 215.966C179.944 214.835 180.734 213.957 181.751 213.332C182.768 212.706 183.959 212.394 185.324 212.394C186.688 212.394 187.879 212.706 188.896 213.332C189.914 213.957 190.703 214.835 191.266 215.966C191.828 217.097 192.109 218.418 192.109 219.928C192.109 221.431 191.828 222.746 191.266 223.87C190.703 224.995 189.914 225.87 188.896 226.495C187.879 227.121 186.688 227.433 185.324 227.433ZM185.333 225.055C186.218 225.055 186.95 224.821 187.532 224.353C188.113 223.886 188.543 223.264 188.821 222.486C189.105 221.709 189.247 220.853 189.247 219.918C189.247 218.99 189.105 218.137 188.821 217.359C188.543 216.576 188.113 215.947 187.532 215.474C186.95 215 186.218 214.763 185.333 214.763C184.442 214.763 183.703 215 183.115 215.474C182.534 215.947 182.101 216.576 181.817 217.359C181.539 218.137 181.4 218.99 181.4 219.918C181.4 220.853 181.539 221.709 181.817 222.486C182.101 223.264 182.534 223.886 183.115 224.353C183.703 224.821 184.442 225.055 185.333 225.055ZM201.266 212.583V214.858H193.315V212.583H201.266ZM195.447 209.096H198.281V222.866C198.281 223.415 198.363 223.829 198.527 224.107C198.692 224.379 198.903 224.565 199.162 224.666C199.428 224.761 199.715 224.808 200.025 224.808C200.252 224.808 200.451 224.793 200.622 224.761C200.792 224.729 200.925 224.704 201.02 224.685L201.532 227.026C201.367 227.089 201.134 227.152 200.83 227.215C200.527 227.285 200.148 227.323 199.693 227.329C198.948 227.342 198.253 227.209 197.608 226.931C196.964 226.653 196.443 226.224 196.044 225.642C195.646 225.061 195.447 224.331 195.447 223.453V209.096Z" fill="#E9FF6B"/>
<path d="M41.5867 274.126C40.399 274.126 39.3312 273.898 38.3835 273.443C37.4422 272.982 36.6903 272.35 36.128 271.548C35.5657 270.746 35.2656 269.83 35.2277 268.8H38.0708C38.1403 269.634 38.5099 270.319 39.1796 270.856C39.8493 271.393 40.6517 271.662 41.5867 271.662C42.3322 271.662 42.9925 271.491 43.5674 271.15C44.1487 270.802 44.6035 270.325 44.9321 269.719C45.2669 269.112 45.4343 268.421 45.4343 267.644C45.4343 266.854 45.2638 266.149 44.9226 265.53C44.5814 264.911 44.1107 264.425 43.5105 264.071C42.9167 263.717 42.2343 263.537 41.4635 263.531C40.876 263.531 40.2852 263.632 39.6913 263.834C39.0975 264.036 38.6173 264.301 38.2509 264.63L35.5689 264.232L36.6587 254.452H47.3297V256.963H39.0943L38.4783 262.393H38.592C38.9711 262.027 39.4734 261.72 40.0989 261.474C40.7306 261.228 41.4067 261.104 42.1269 261.104C43.3084 261.104 44.3603 261.386 45.2827 261.948C46.2115 262.51 46.9412 263.278 47.4719 264.251C48.0089 265.217 48.2743 266.329 48.2679 267.587C48.2743 268.844 47.99 269.965 47.415 270.951C46.8464 271.937 46.0567 272.714 45.0458 273.282C44.0412 273.845 42.8882 274.126 41.5867 274.126ZM54.2313 274.04C53.7132 274.04 53.2678 273.857 52.895 273.491C52.5223 273.118 52.3359 272.669 52.3359 272.145C52.3359 271.627 52.5223 271.185 52.895 270.818C53.2678 270.446 53.7132 270.259 54.2313 270.259C54.7494 270.259 55.1948 270.446 55.5675 270.818C55.9403 271.185 56.1267 271.627 56.1267 272.145C56.1267 272.493 56.0382 272.812 55.8613 273.102C55.6907 273.387 55.4633 273.614 55.179 273.785C54.8947 273.955 54.5788 274.04 54.2313 274.04ZM68.7893 279.319V259.304H71.5566V261.664H71.7935C71.9577 261.36 72.1947 261.01 72.5042 260.612C72.8138 260.214 73.2434 259.866 73.7931 259.569C74.3428 259.266 75.0693 259.114 75.9728 259.114C77.1479 259.114 78.1967 259.411 79.1191 260.005C80.0415 260.599 80.7649 261.455 81.2893 262.573C81.82 263.692 82.0854 265.037 82.0854 266.611C82.0854 268.184 81.8232 269.533 81.2988 270.657C80.7744 271.775 80.0542 272.638 79.1381 273.244C78.222 273.845 77.1764 274.145 76.0012 274.145C75.1167 274.145 74.3933 273.996 73.831 273.699C73.275 273.402 72.8391 273.055 72.5232 272.657C72.2073 272.259 71.9641 271.905 71.7935 271.595H71.6229V279.319H68.7893ZM71.566 266.582C71.566 267.606 71.7145 268.503 72.0114 269.274C72.3084 270.044 72.738 270.648 73.3003 271.084C73.8626 271.513 74.5513 271.728 75.3663 271.728C76.2129 271.728 76.9205 271.504 77.4891 271.055C78.0577 270.6 78.4873 269.984 78.778 269.207C79.0749 268.43 79.2234 267.555 79.2234 266.582C79.2234 265.622 79.0781 264.759 78.7874 263.995C78.5031 263.23 78.0735 262.627 77.4986 262.185C76.93 261.743 76.2192 261.521 75.3663 261.521C74.5449 261.521 73.85 261.733 73.2813 262.156C72.7191 262.58 72.2926 263.17 72.002 263.929C71.7113 264.687 71.566 265.571 71.566 266.582ZM90.5911 274.154C89.2264 274.154 88.0355 273.841 87.0183 273.216C86.0011 272.59 85.2114 271.715 84.6491 270.591C84.0868 269.466 83.8056 268.152 83.8056 266.648C83.8056 265.138 84.0868 263.818 84.6491 262.687C85.2114 261.556 86.0011 260.678 87.0183 260.053C88.0355 259.427 89.2264 259.114 90.5911 259.114C91.9558 259.114 93.1467 259.427 94.1639 260.053C95.1811 260.678 95.9708 261.556 96.5331 262.687C97.0954 263.818 97.3766 265.138 97.3766 266.648C97.3766 268.152 97.0954 269.466 96.5331 270.591C95.9708 271.715 95.1811 272.59 94.1639 273.216C93.1467 273.841 91.9558 274.154 90.5911 274.154ZM90.6006 271.775C91.4851 271.775 92.218 271.542 92.7992 271.074C93.3805 270.607 93.8101 269.984 94.0881 269.207C94.3724 268.43 94.5145 267.574 94.5145 266.639C94.5145 265.71 94.3724 264.857 94.0881 264.08C93.8101 263.297 93.3805 262.668 92.7992 262.194C92.218 261.72 91.4851 261.484 90.6006 261.484C89.7097 261.484 88.9705 261.72 88.383 262.194C87.8017 262.668 87.369 263.297 87.0846 264.08C86.8067 264.857 86.6677 265.71 86.6677 266.639C86.6677 267.574 86.8067 268.43 87.0846 269.207C87.369 269.984 87.8017 270.607 88.383 271.074C88.9705 271.542 89.7097 271.775 90.6006 271.775ZM110.647 262.858L108.079 263.313C107.971 262.984 107.801 262.671 107.567 262.374C107.339 262.077 107.03 261.834 106.638 261.645C106.246 261.455 105.757 261.36 105.169 261.36C104.367 261.36 103.697 261.54 103.16 261.901C102.623 262.254 102.354 262.712 102.354 263.275C102.354 263.761 102.535 264.153 102.895 264.45C103.255 264.747 103.836 264.99 104.638 265.18L106.951 265.71C108.29 266.02 109.288 266.497 109.945 267.141C110.603 267.786 110.931 268.623 110.931 269.653C110.931 270.524 110.678 271.302 110.173 271.984C109.674 272.66 108.976 273.191 108.079 273.576C107.188 273.961 106.155 274.154 104.98 274.154C103.35 274.154 102.02 273.807 100.99 273.112C99.96 272.41 99.3282 271.415 99.0944 270.126L101.833 269.709C102.004 270.423 102.354 270.964 102.885 271.33C103.416 271.69 104.108 271.87 104.961 271.87C105.889 271.87 106.632 271.678 107.188 271.292C107.744 270.9 108.022 270.423 108.022 269.861C108.022 269.406 107.851 269.024 107.51 268.714C107.175 268.405 106.66 268.171 105.965 268.013L103.501 267.473C102.143 267.163 101.138 266.671 100.488 265.995C99.8431 265.319 99.5209 264.462 99.5209 263.426C99.5209 262.567 99.761 261.815 100.241 261.171C100.721 260.526 101.385 260.024 102.231 259.664C103.078 259.298 104.048 259.114 105.141 259.114C106.714 259.114 107.952 259.455 108.856 260.138C109.759 260.814 110.356 261.72 110.647 262.858ZM120.041 259.304V261.578H112.09V259.304H120.041ZM114.222 255.816H117.056V269.586C117.056 270.136 117.138 270.55 117.302 270.828C117.466 271.099 117.678 271.286 117.937 271.387C118.202 271.482 118.49 271.529 118.799 271.529C119.027 271.529 119.226 271.513 119.397 271.482C119.567 271.45 119.7 271.425 119.795 271.406L120.306 273.747C120.142 273.81 119.908 273.873 119.605 273.936C119.302 274.006 118.923 274.044 118.468 274.05C117.722 274.063 117.027 273.93 116.383 273.652C115.738 273.374 115.217 272.944 114.819 272.363C114.421 271.782 114.222 271.052 114.222 270.174V255.816ZM128.637 273.86V259.304H131.47V273.86H128.637ZM130.068 257.058C129.575 257.058 129.152 256.894 128.798 256.565C128.451 256.23 128.277 255.832 128.277 255.371C128.277 254.903 128.451 254.505 128.798 254.177C129.152 253.842 129.575 253.675 130.068 253.675C130.561 253.675 130.981 253.842 131.328 254.177C131.682 254.505 131.859 254.903 131.859 255.371C131.859 255.832 131.682 256.23 131.328 256.565C130.981 256.894 130.561 257.058 130.068 257.058ZM137.316 265.217V273.86H134.482V259.304H137.202V261.673H137.382C137.717 260.902 138.241 260.283 138.955 259.816C139.675 259.348 140.582 259.114 141.675 259.114C142.667 259.114 143.536 259.323 144.281 259.74C145.027 260.15 145.605 260.763 146.015 261.578C146.426 262.393 146.631 263.401 146.631 264.601V273.86H143.798V264.943C143.798 263.887 143.523 263.063 142.973 262.469C142.424 261.869 141.669 261.569 140.708 261.569C140.051 261.569 139.467 261.711 138.955 261.995C138.45 262.28 138.048 262.697 137.751 263.246C137.461 263.79 137.316 264.447 137.316 265.217ZM157.684 279.319C157.261 279.319 156.875 279.284 156.528 279.215C156.18 279.152 155.921 279.082 155.751 279.006L156.433 276.684C156.951 276.823 157.412 276.883 157.817 276.865C158.221 276.846 158.578 276.694 158.888 276.41C159.204 276.125 159.482 275.661 159.722 275.017L160.072 274.05L154.746 259.304H157.779L161.465 270.6H161.617L165.304 259.304H168.346L162.347 275.803C162.069 276.561 161.715 277.203 161.285 277.727C160.856 278.258 160.344 278.656 159.75 278.921C159.156 279.186 158.468 279.319 157.684 279.319ZM175.844 274.154C174.48 274.154 173.289 273.841 172.272 273.216C171.254 272.59 170.465 271.715 169.902 270.591C169.34 269.466 169.059 268.152 169.059 266.648C169.059 265.138 169.34 263.818 169.902 262.687C170.465 261.556 171.254 260.678 172.272 260.053C173.289 259.427 174.48 259.114 175.844 259.114C177.209 259.114 178.4 259.427 179.417 260.053C180.434 260.678 181.224 261.556 181.786 262.687C182.349 263.818 182.63 265.138 182.63 266.648C182.63 268.152 182.349 269.466 181.786 270.591C181.224 271.715 180.434 272.59 179.417 273.216C178.4 273.841 177.209 274.154 175.844 274.154ZM175.854 271.775C176.738 271.775 177.471 271.542 178.053 271.074C178.634 270.607 179.063 269.984 179.341 269.207C179.626 268.43 179.768 267.574 179.768 266.639C179.768 265.71 179.626 264.857 179.341 264.08C179.063 263.297 178.634 262.668 178.053 262.194C177.471 261.72 176.738 261.484 175.854 261.484C174.963 261.484 174.224 261.72 173.636 262.194C173.055 262.668 172.622 263.297 172.338 264.08C172.06 264.857 171.921 265.71 171.921 266.639C171.921 267.574 172.06 268.43 172.338 269.207C172.622 269.984 173.055 270.607 173.636 271.074C174.224 271.542 174.963 271.775 175.854 271.775ZM194.213 267.824V259.304H197.056V273.86H194.27V271.339H194.118C193.784 272.117 193.247 272.764 192.507 273.282C191.775 273.794 190.862 274.05 189.769 274.05C188.834 274.05 188.006 273.845 187.286 273.434C186.572 273.017 186.009 272.401 185.599 271.586C185.194 270.771 184.992 269.763 184.992 268.563V259.304H187.826V268.222C187.826 269.214 188.101 270.003 188.65 270.591C189.2 271.178 189.914 271.472 190.792 271.472C191.323 271.472 191.85 271.339 192.375 271.074C192.905 270.809 193.345 270.408 193.692 269.871C194.046 269.334 194.22 268.651 194.213 267.824ZM200.063 273.86V259.304H202.802V261.616H202.954C203.219 260.833 203.686 260.217 204.356 259.768C205.032 259.313 205.797 259.086 206.65 259.086C206.826 259.086 207.035 259.092 207.275 259.105C207.521 259.117 207.714 259.133 207.853 259.152V261.863C207.739 261.831 207.537 261.796 207.247 261.758C206.956 261.714 206.665 261.692 206.375 261.692C205.705 261.692 205.108 261.834 204.584 262.118C204.065 262.396 203.655 262.785 203.352 263.284C203.048 263.777 202.897 264.339 202.897 264.971V273.86H200.063ZM79.6972 286.858L77.129 287.313C77.0216 286.984 76.851 286.671 76.6172 286.374C76.3898 286.077 76.0802 285.834 75.6885 285.645C75.2968 285.455 74.8071 285.36 74.2196 285.36C73.4172 285.36 72.7475 285.54 72.2105 285.901C71.6734 286.254 71.4049 286.712 71.4049 287.275C71.4049 287.761 71.585 288.153 71.9451 288.45C72.3052 288.747 72.8865 288.99 73.6889 289.18L76.0012 289.71C77.3406 290.02 78.3389 290.497 78.9959 291.141C79.653 291.786 79.9815 292.623 79.9815 293.653C79.9815 294.524 79.7288 295.302 79.2234 295.984C78.7242 296.66 78.0261 297.191 77.129 297.576C76.2381 297.961 75.2052 298.154 74.03 298.154C72.4 298.154 71.0701 297.807 70.0402 297.112C69.0104 296.41 68.3786 295.415 68.1449 294.126L70.8837 293.709C71.0543 294.423 71.4049 294.964 71.9356 295.33C72.4663 295.69 73.1581 295.87 74.0111 295.87C74.9398 295.87 75.6822 295.678 76.2381 295.292C76.7941 294.9 77.0721 294.423 77.0721 293.861C77.0721 293.406 76.9015 293.024 76.5604 292.714C76.2255 292.405 75.7106 292.171 75.0156 292.013L72.5516 291.473C71.1933 291.163 70.1887 290.671 69.538 289.995C68.8935 289.319 68.5713 288.462 68.5713 287.426C68.5713 286.567 68.8114 285.815 69.2916 285.171C69.7717 284.526 70.4351 284.024 71.2817 283.664C72.1283 283.298 73.0981 283.114 74.1911 283.114C75.7643 283.114 77.0026 283.455 77.9061 284.138C78.8095 284.814 79.4066 285.72 79.6972 286.858ZM88.428 298.154C87.0633 298.154 85.8724 297.841 84.8552 297.216C83.838 296.59 83.0483 295.715 82.486 294.591C81.9237 293.466 81.6425 292.152 81.6425 290.648C81.6425 289.138 81.9237 287.818 82.486 286.687C83.0483 285.556 83.838 284.678 84.8552 284.053C85.8724 283.427 87.0633 283.114 88.428 283.114C89.7927 283.114 90.9836 283.427 92.0008 284.053C93.018 284.678 93.8077 285.556 94.37 286.687C94.9323 287.818 95.2135 289.138 95.2135 290.648C95.2135 292.152 94.9323 293.466 94.37 294.591C93.8077 295.715 93.018 296.59 92.0008 297.216C90.9836 297.841 89.7927 298.154 88.428 298.154ZM88.4375 295.775C89.322 295.775 90.0549 295.542 90.6361 295.074C91.2174 294.607 91.647 293.984 91.925 293.207C92.2093 292.43 92.3514 291.574 92.3514 290.639C92.3514 289.71 92.2093 288.857 91.925 288.08C91.647 287.297 91.2174 286.668 90.6361 286.194C90.0549 285.72 89.322 285.484 88.4375 285.484C87.5466 285.484 86.8074 285.72 86.2199 286.194C85.6386 286.668 85.2058 287.297 84.9215 288.08C84.6436 288.857 84.5046 289.71 84.5046 290.639C84.5046 291.574 84.6436 292.43 84.9215 293.207C85.2058 293.984 85.6386 294.607 86.2199 295.074C86.8074 295.542 87.5466 295.775 88.4375 295.775ZM103.707 298.154C102.298 298.154 101.085 297.835 100.068 297.197C99.0573 296.553 98.2802 295.665 97.7369 294.534C97.1935 293.403 96.9219 292.108 96.9219 290.648C96.9219 289.17 97.1998 287.865 97.7558 286.734C98.3118 285.597 99.0952 284.71 100.106 284.071C101.117 283.433 102.308 283.114 103.679 283.114C104.785 283.114 105.77 283.32 106.636 283.73C107.501 284.135 108.199 284.703 108.73 285.436C109.267 286.169 109.586 287.025 109.687 288.004H106.929C106.778 287.322 106.43 286.734 105.887 286.242C105.35 285.749 104.63 285.502 103.726 285.502C102.937 285.502 102.245 285.711 101.651 286.128C101.063 286.539 100.605 287.126 100.277 287.891C99.9481 288.649 99.7839 289.546 99.7839 290.582C99.7839 291.644 99.945 292.56 100.267 293.33C100.589 294.101 101.044 294.698 101.632 295.122C102.226 295.545 102.924 295.756 103.726 295.756C104.263 295.756 104.75 295.659 105.186 295.463C105.628 295.261 105.998 294.973 106.295 294.6C106.598 294.228 106.809 293.779 106.929 293.255H109.687C109.586 294.196 109.28 295.036 108.768 295.775C108.256 296.515 107.571 297.096 106.711 297.519C105.859 297.942 104.857 298.154 103.707 298.154ZM111.917 297.86V283.304H114.75V297.86H111.917ZM113.348 281.058C112.855 281.058 112.432 280.894 112.078 280.565C111.73 280.23 111.557 279.832 111.557 279.371C111.557 278.903 111.73 278.505 112.078 278.177C112.432 277.842 112.855 277.675 113.348 277.675C113.841 277.675 114.261 277.842 114.608 278.177C114.962 278.505 115.139 278.903 115.139 279.371C115.139 279.832 114.962 280.23 114.608 280.565C114.261 280.894 113.841 281.058 113.348 281.058ZM121.998 298.183C121.076 298.183 120.242 298.012 119.496 297.671C118.751 297.323 118.16 296.821 117.724 296.164C117.294 295.507 117.08 294.701 117.08 293.747C117.08 292.926 117.238 292.25 117.553 291.719C117.869 291.189 118.296 290.768 118.833 290.459C119.37 290.149 119.97 289.916 120.633 289.758C121.297 289.6 121.973 289.48 122.662 289.397C123.533 289.296 124.241 289.214 124.784 289.151C125.328 289.082 125.723 288.971 125.969 288.819C126.215 288.668 126.339 288.421 126.339 288.08V288.014C126.339 287.186 126.105 286.545 125.637 286.09C125.176 285.635 124.487 285.408 123.571 285.408C122.617 285.408 121.865 285.619 121.316 286.043C120.772 286.46 120.397 286.924 120.188 287.436L117.525 286.829C117.841 285.945 118.302 285.231 118.909 284.687C119.521 284.138 120.226 283.74 121.022 283.493C121.818 283.241 122.655 283.114 123.533 283.114C124.115 283.114 124.731 283.184 125.381 283.323C126.038 283.455 126.651 283.702 127.22 284.062C127.795 284.422 128.266 284.937 128.632 285.607C128.998 286.27 129.182 287.132 129.182 288.194V297.86H126.414V295.87H126.301C126.117 296.237 125.843 296.597 125.476 296.951C125.11 297.304 124.639 297.598 124.064 297.832C123.489 298.066 122.8 298.183 121.998 298.183ZM122.614 295.908C123.398 295.908 124.067 295.753 124.623 295.444C125.186 295.134 125.612 294.73 125.903 294.231C126.2 293.725 126.348 293.185 126.348 292.61V290.734C126.247 290.835 126.051 290.93 125.76 291.018C125.476 291.1 125.151 291.173 124.784 291.236C124.418 291.293 124.061 291.347 123.713 291.397C123.366 291.441 123.075 291.479 122.842 291.511C122.292 291.58 121.79 291.697 121.335 291.861C120.886 292.026 120.526 292.263 120.254 292.572C119.989 292.876 119.856 293.28 119.856 293.785C119.856 294.487 120.115 295.017 120.633 295.377C121.152 295.731 121.812 295.908 122.614 295.908ZM134.989 278.452V297.86H132.155V278.452H134.989ZM144.262 297.86V283.304H146.982V285.673H147.162C147.465 284.871 147.961 284.245 148.65 283.797C149.339 283.342 150.163 283.114 151.124 283.114C152.097 283.114 152.912 283.342 153.569 283.797C154.232 284.252 154.722 284.877 155.038 285.673H155.189C155.537 284.896 156.089 284.277 156.848 283.816C157.606 283.348 158.509 283.114 159.558 283.114C160.878 283.114 161.956 283.528 162.79 284.356C163.63 285.183 164.05 286.431 164.05 288.099V297.86H161.216V288.364C161.216 287.379 160.948 286.665 160.411 286.223C159.874 285.78 159.233 285.559 158.487 285.559C157.565 285.559 156.848 285.844 156.336 286.412C155.824 286.975 155.568 287.698 155.568 288.582V297.86H152.744V288.184C152.744 287.395 152.498 286.76 152.005 286.28C151.512 285.799 150.871 285.559 150.081 285.559C149.544 285.559 149.048 285.701 148.593 285.986C148.145 286.264 147.781 286.652 147.503 287.151C147.232 287.651 147.096 288.229 147.096 288.886V297.86H144.262ZM173.321 298.154C171.887 298.154 170.652 297.848 169.616 297.235C168.586 296.616 167.79 295.747 167.227 294.629C166.671 293.504 166.393 292.187 166.393 290.677C166.393 289.186 166.671 287.872 167.227 286.734C167.79 285.597 168.573 284.71 169.578 284.071C170.589 283.433 171.77 283.114 173.122 283.114C173.943 283.114 174.739 283.25 175.51 283.522C176.281 283.793 176.973 284.22 177.586 284.801C178.198 285.382 178.682 286.137 179.036 287.066C179.389 287.989 179.566 289.11 179.566 290.43V291.435H167.995V289.312H176.79C176.79 288.567 176.638 287.906 176.335 287.332C176.031 286.75 175.605 286.292 175.055 285.957C174.512 285.623 173.874 285.455 173.141 285.455C172.345 285.455 171.65 285.651 171.056 286.043C170.468 286.428 170.014 286.933 169.691 287.559C169.375 288.178 169.218 288.851 169.218 289.578V291.236C169.218 292.209 169.388 293.037 169.729 293.719C170.077 294.401 170.56 294.923 171.179 295.283C171.798 295.636 172.522 295.813 173.349 295.813C173.886 295.813 174.376 295.738 174.818 295.586C175.261 295.428 175.643 295.194 175.965 294.885C176.287 294.575 176.534 294.193 176.704 293.738L179.386 294.221C179.171 295.011 178.786 295.703 178.23 296.297C177.68 296.884 176.989 297.342 176.155 297.671C175.327 297.993 174.382 298.154 173.321 298.154ZM187.359 298.145C186.184 298.145 185.135 297.845 184.213 297.244C183.296 296.638 182.576 295.775 182.052 294.657C181.534 293.533 181.275 292.184 181.275 290.611C181.275 289.037 181.537 287.692 182.061 286.573C182.592 285.455 183.319 284.599 184.241 284.005C185.163 283.411 186.209 283.114 187.378 283.114C188.281 283.114 189.008 283.266 189.558 283.569C190.114 283.866 190.543 284.214 190.846 284.612C191.156 285.01 191.396 285.36 191.567 285.664H191.737V278.452H194.571V297.86H191.804V295.595H191.567C191.396 295.905 191.15 296.259 190.827 296.657C190.512 297.055 190.076 297.402 189.52 297.699C188.964 297.996 188.243 298.145 187.359 298.145ZM187.984 295.728C188.799 295.728 189.488 295.513 190.05 295.084C190.619 294.648 191.049 294.044 191.339 293.274C191.636 292.503 191.785 291.606 191.785 290.582C191.785 289.571 191.639 288.687 191.349 287.929C191.058 287.17 190.632 286.58 190.069 286.156C189.507 285.733 188.812 285.521 187.984 285.521C187.131 285.521 186.421 285.743 185.852 286.185C185.283 286.627 184.854 287.23 184.563 287.995C184.279 288.759 184.137 289.622 184.137 290.582C184.137 291.555 184.282 292.43 184.573 293.207C184.863 293.984 185.293 294.6 185.862 295.055C186.436 295.504 187.144 295.728 187.984 295.728ZM197.814 297.86V283.304H200.648V297.86H197.814ZM199.245 281.058C198.753 281.058 198.329 280.894 197.976 280.565C197.628 280.23 197.454 279.832 197.454 279.371C197.454 278.903 197.628 278.505 197.976 278.177C198.329 277.842 198.753 277.675 199.245 277.675C199.738 277.675 200.158 277.842 200.506 278.177C200.86 278.505 201.037 278.903 201.037 279.371C201.037 279.832 200.86 280.23 200.506 280.565C200.158 280.894 199.738 281.058 199.245 281.058ZM207.896 298.183C206.973 298.183 206.139 298.012 205.394 297.671C204.648 297.323 204.058 296.821 203.622 296.164C203.192 295.507 202.977 294.701 202.977 293.747C202.977 292.926 203.135 292.25 203.451 291.719C203.767 291.189 204.193 290.768 204.73 290.459C205.267 290.149 205.868 289.916 206.531 289.758C207.194 289.6 207.87 289.48 208.559 289.397C209.431 289.296 210.139 289.214 210.682 289.151C211.225 289.082 211.62 288.971 211.867 288.819C212.113 288.668 212.236 288.421 212.236 288.08V288.014C212.236 287.186 212.002 286.545 211.535 286.09C211.074 285.635 210.385 285.408 209.469 285.408C208.515 285.408 207.763 285.619 207.213 286.043C206.67 286.46 206.294 286.924 206.086 287.436L203.423 286.829C203.739 285.945 204.2 285.231 204.806 284.687C205.419 284.138 206.124 283.74 206.92 283.493C207.716 283.241 208.553 283.114 209.431 283.114C210.012 283.114 210.628 283.184 211.279 283.323C211.936 283.455 212.549 283.702 213.117 284.062C213.692 284.422 214.163 284.937 214.53 285.607C214.896 286.27 215.079 287.132 215.079 288.194V297.86H212.312V295.87H212.198C212.015 296.237 211.74 296.597 211.374 296.951C211.007 297.304 210.537 297.598 209.962 297.832C209.387 298.066 208.698 298.183 207.896 298.183ZM208.512 295.908C209.295 295.908 209.965 295.753 210.521 295.444C211.083 295.134 211.51 294.73 211.8 294.231C212.097 293.725 212.246 293.185 212.246 292.61V290.734C212.145 290.835 211.949 290.93 211.658 291.018C211.374 291.1 211.048 291.173 210.682 291.236C210.315 291.293 209.959 291.347 209.611 291.397C209.264 291.441 208.973 291.479 208.739 291.511C208.19 291.58 207.687 291.697 207.232 291.861C206.784 292.026 206.424 292.263 206.152 292.572C205.887 292.876 205.754 293.28 205.754 293.785C205.754 294.487 206.013 295.017 206.531 295.377C207.049 295.731 207.709 295.908 208.512 295.908ZM71.9451 321.86L67.6615 307.304H70.5899L73.4425 317.994H73.5846L76.4466 307.304H79.375L82.2181 317.946H82.3602L85.1938 307.304H88.1222L83.8481 321.86H80.9576L78.0008 311.35H77.7829L74.8261 321.86H71.9451ZM90.0106 321.86V307.304H92.8442V321.86H90.0106ZM91.4417 305.058C90.9489 305.058 90.5256 304.894 90.1717 304.565C89.8243 304.23 89.6505 303.832 89.6505 303.371C89.6505 302.903 89.8243 302.505 90.1717 302.177C90.5256 301.842 90.9489 301.675 91.4417 301.675C91.9345 301.675 92.3546 301.842 92.7021 302.177C93.0559 302.505 93.2328 302.903 93.2328 303.371C93.2328 303.832 93.0559 304.23 92.7021 304.565C92.3546 304.894 91.9345 305.058 91.4417 305.058ZM102.651 307.304V309.578H94.6995V307.304H102.651ZM96.8318 303.816H99.6654V317.586C99.6654 318.136 99.7476 318.55 99.9118 318.828C100.076 319.099 100.288 319.286 100.547 319.387C100.812 319.482 101.1 319.529 101.409 319.529C101.637 319.529 101.836 319.513 102.006 319.482C102.177 319.45 102.309 319.425 102.404 319.406L102.916 321.747C102.752 321.81 102.518 321.873 102.215 321.936C101.911 322.006 101.532 322.044 101.077 322.05C100.332 322.063 99.637 321.93 98.9926 321.652C98.3481 321.374 97.8269 320.944 97.4289 320.363C97.0308 319.782 96.8318 319.052 96.8318 318.174V303.816ZM108.131 313.217V321.86H105.297V302.452H108.093V309.673H108.273C108.614 308.89 109.135 308.267 109.837 307.806C110.538 307.345 111.454 307.114 112.585 307.114C113.583 307.114 114.455 307.32 115.201 307.73C115.952 308.141 116.534 308.754 116.944 309.569C117.361 310.378 117.57 311.388 117.57 312.601V321.86H114.736V312.943C114.736 311.875 114.461 311.047 113.912 310.46C113.362 309.866 112.598 309.569 111.618 309.569C110.949 309.569 110.348 309.711 109.818 309.995C109.293 310.28 108.88 310.697 108.576 311.246C108.279 311.79 108.131 312.447 108.131 313.217ZM76.295 345.86L79.8204 326.452H82.0949L78.5695 345.86H76.295ZM67.5952 340.667L68.0122 338.393H82.7203L82.3034 340.667H67.5952ZM69.4716 345.86L72.997 326.452H75.2715L71.7461 345.86H69.4716ZM68.8462 333.919L69.2537 331.645H83.9618L83.5543 333.919H68.8462ZM87.1889 340.923L87.7291 337.464H88.2314L95.0737 331.304H98.4664L90.6953 338.317H90.2499L87.1889 340.923ZM83.7677 345.86L86.9899 326.452H89.8235L86.6013 345.86H83.7677ZM92.9603 345.86L88.9042 338.942L91.1692 336.962L96.4383 345.86H92.9603ZM97.8222 345.86L100.248 331.304H103.082L100.656 345.86H97.8222ZM102.257 329.029C101.765 329.029 101.348 328.865 101.006 328.537C100.672 328.202 100.517 327.804 100.542 327.342C100.567 326.875 100.763 326.477 101.13 326.148C101.496 325.814 101.923 325.646 102.409 325.646C102.902 325.646 103.316 325.814 103.65 326.148C103.985 326.477 104.143 326.875 104.124 327.342C104.099 327.804 103.903 328.202 103.537 328.537C103.177 328.865 102.75 329.029 102.257 329.029ZM107.932 337.217L106.51 345.86H103.677L106.103 331.304H108.823L108.425 333.673H108.605C109.066 332.896 109.695 332.277 110.491 331.816C111.293 331.348 112.241 331.114 113.334 331.114C114.319 331.114 115.147 331.323 115.817 331.74C116.493 332.15 116.97 332.763 117.248 333.578C117.532 334.393 117.576 335.401 117.38 336.601L115.826 345.86H112.993L114.48 336.943C114.651 335.887 114.512 335.063 114.063 334.469C113.621 333.869 112.917 333.569 111.95 333.569C111.293 333.569 110.683 333.711 110.121 333.995C109.565 334.28 109.094 334.697 108.709 335.246C108.33 335.79 108.071 336.447 107.932 337.217ZM128.037 331.304L127.668 333.578H119.717L120.086 331.304H128.037ZM122.787 327.816H125.621L123.327 341.586C123.239 342.136 123.255 342.55 123.375 342.828C123.495 343.099 123.678 343.286 123.924 343.387C124.177 343.482 124.458 343.529 124.768 343.529C124.995 343.529 125.194 343.513 125.365 343.482C125.535 343.45 125.671 343.425 125.772 343.406L125.924 345.747C125.734 345.81 125.479 345.873 125.156 345.936C124.84 346.006 124.455 346.044 124 346.05C123.255 346.063 122.582 345.93 121.982 345.652C121.381 345.368 120.933 344.938 120.636 344.363C120.339 343.782 120.266 343.052 120.418 342.174L122.787 327.816ZM140.457 334.858L137.813 335.313C137.756 334.978 137.639 334.662 137.462 334.365C137.292 334.068 137.029 333.828 136.676 333.645C136.322 333.455 135.851 333.36 135.264 333.36C134.449 333.36 133.735 333.547 133.122 333.919C132.515 334.292 132.168 334.766 132.079 335.341C131.997 335.809 132.108 336.188 132.411 336.478C132.714 336.763 133.248 336.999 134.013 337.189L136.249 337.72C137.538 338.029 138.46 338.513 139.016 339.17C139.579 339.82 139.775 340.667 139.604 341.709C139.459 342.575 139.08 343.343 138.467 344.012C137.86 344.682 137.083 345.206 136.135 345.586C135.188 345.965 134.133 346.154 132.97 346.154C131.315 346.154 130.026 345.803 129.104 345.102C128.181 344.401 127.707 343.409 127.682 342.126L130.487 341.709C130.538 342.423 130.794 342.964 131.255 343.33C131.722 343.69 132.37 343.87 133.198 343.87C134.145 343.877 134.938 343.678 135.576 343.273C136.214 342.869 136.578 342.379 136.666 341.804C136.742 341.356 136.641 340.983 136.363 340.686C136.091 340.389 135.611 340.162 134.922 340.004L132.572 339.463C131.258 339.154 130.329 338.655 129.786 337.966C129.243 337.277 129.059 336.412 129.236 335.369C129.375 334.516 129.735 333.774 130.317 333.142C130.904 332.504 131.647 332.008 132.544 331.654C133.441 331.294 134.433 331.114 135.519 331.114C137.105 331.114 138.296 331.455 139.092 332.138C139.888 332.814 140.343 333.72 140.457 334.858ZM151.443 339.824L152.865 331.304H155.708L153.282 345.86H150.496L150.922 343.339H150.77C150.315 344.117 149.671 344.764 148.837 345.282C148.009 345.794 147.049 346.05 145.956 346.05C145.021 346.05 144.228 345.845 143.577 345.434C142.933 345.017 142.475 344.401 142.203 343.586C141.932 342.771 141.894 341.763 142.09 340.563L143.644 331.304H146.477L144.989 340.222C144.832 341.214 144.98 342.003 145.435 342.591C145.89 343.178 146.553 343.472 147.425 343.472C147.956 343.472 148.505 343.339 149.074 343.074C149.643 342.809 150.145 342.408 150.581 341.871C151.023 341.334 151.311 340.651 151.443 339.824ZM161.482 351.622C160.319 351.622 159.346 351.471 158.563 351.167C157.786 350.864 157.173 350.463 156.724 349.964C156.282 349.465 155.976 348.918 155.805 348.324L158.421 347.32C158.547 347.598 158.724 347.892 158.952 348.201C159.179 348.517 159.517 348.786 159.966 349.007C160.42 349.228 161.043 349.338 161.832 349.338C162.907 349.338 163.845 349.076 164.647 348.552C165.449 348.034 165.945 347.206 166.135 346.069L166.58 343.207H166.4C166.186 343.516 165.889 343.861 165.51 344.24C165.13 344.619 164.641 344.947 164.041 345.225C163.44 345.503 162.695 345.642 161.804 345.642C160.654 345.642 159.662 345.374 158.828 344.837C158.001 344.294 157.407 343.494 157.047 342.439C156.687 341.378 156.636 340.073 156.895 338.525C157.148 336.977 157.628 335.651 158.336 334.545C159.049 333.439 159.915 332.593 160.932 332.005C161.956 331.411 163.052 331.114 164.221 331.114C165.124 331.114 165.829 331.266 166.334 331.569C166.846 331.866 167.225 332.214 167.471 332.612C167.718 333.01 167.898 333.36 168.011 333.664H168.22L168.608 331.304H171.385L168.921 346.183C168.719 347.434 168.261 348.46 167.547 349.263C166.839 350.065 165.958 350.659 164.903 351.044C163.854 351.43 162.714 351.622 161.482 351.622ZM162.771 343.292C163.579 343.292 164.3 343.103 164.931 342.723C165.57 342.338 166.1 341.788 166.524 341.075C166.947 340.354 167.241 339.492 167.405 338.487C167.569 337.508 167.56 336.646 167.376 335.9C167.2 335.155 166.855 334.573 166.343 334.156C165.838 333.733 165.178 333.521 164.363 333.521C163.504 333.521 162.758 333.743 162.126 334.185C161.494 334.621 160.98 335.215 160.582 335.966C160.19 336.718 159.915 337.559 159.757 338.487C159.605 339.441 159.609 340.278 159.767 340.999C159.931 341.719 160.259 342.281 160.752 342.686C161.245 343.09 161.918 343.292 162.771 343.292ZM171.959 345.86L174.385 331.304H177.218L174.792 345.86H171.959ZM176.394 329.029C175.901 329.029 175.484 328.865 175.143 328.537C174.808 328.202 174.653 327.804 174.679 327.342C174.704 326.875 174.9 326.477 175.266 326.148C175.633 325.814 176.059 325.646 176.546 325.646C177.038 325.646 177.452 325.814 177.787 326.148C178.122 326.477 178.28 326.875 178.261 327.342C178.236 327.804 178.04 328.202 177.673 328.537C177.313 328.865 176.887 329.029 176.394 329.029ZM182.068 337.217L180.647 345.86H177.813L181.035 326.452H183.831L182.637 333.673H182.817C183.278 332.883 183.897 332.261 184.675 331.806C185.458 331.345 186.418 331.114 187.556 331.114C188.554 331.114 189.391 331.32 190.067 331.73C190.749 332.141 191.229 332.754 191.507 333.569C191.792 334.378 191.836 335.388 191.64 336.601L190.086 345.86H187.252L188.731 336.943C188.908 335.875 188.769 335.047 188.314 334.46C187.859 333.866 187.148 333.569 186.181 333.569C185.505 333.569 184.88 333.711 184.305 333.995C183.736 334.28 183.256 334.697 182.864 335.246C182.473 335.79 182.207 336.447 182.068 337.217ZM199.293 346.154C197.865 346.154 196.684 345.848 195.749 345.235C194.82 344.616 194.169 343.747 193.796 342.629C193.424 341.504 193.363 340.187 193.616 338.677C193.863 337.186 194.359 335.872 195.104 334.734C195.85 333.597 196.778 332.71 197.89 332.071C199.009 331.433 200.244 331.114 201.596 331.114C202.417 331.114 203.191 331.25 203.918 331.522C204.65 331.793 205.273 332.22 205.785 332.801C206.296 333.382 206.65 334.137 206.846 335.066C207.048 335.989 207.042 337.11 206.827 338.43L206.666 339.435H195.085L195.417 337.312H204.211C204.344 336.567 204.309 335.906 204.107 335.332C203.905 334.75 203.557 334.292 203.065 333.957C202.578 333.623 201.965 333.455 201.226 333.455C200.468 333.455 199.76 333.654 199.103 334.052C198.446 334.45 197.897 334.959 197.454 335.578C197.018 336.191 196.744 336.823 196.63 337.473L196.298 339.416C196.134 340.477 196.162 341.33 196.383 341.975C196.611 342.619 197.009 343.087 197.578 343.377C198.146 343.668 198.857 343.813 199.71 343.813C200.26 343.813 200.768 343.738 201.236 343.586C201.709 343.428 202.13 343.197 202.496 342.894C202.863 342.585 203.169 342.199 203.415 341.738L206.012 342.221C205.665 343.011 205.165 343.703 204.515 344.297C203.864 344.884 203.096 345.342 202.212 345.671C201.334 345.993 200.361 346.154 199.293 346.154ZM212.17 346.183C211.247 346.183 210.442 346.012 209.753 345.671C209.065 345.323 208.556 344.821 208.227 344.164C207.899 343.507 207.814 342.701 207.972 341.747C208.111 340.926 208.382 340.25 208.787 339.719C209.197 339.189 209.696 338.768 210.284 338.459C210.871 338.143 211.51 337.906 212.198 337.748C212.887 337.59 213.582 337.473 214.283 337.397C215.168 337.296 215.885 337.211 216.434 337.142C216.99 337.072 217.407 336.965 217.685 336.819C217.963 336.668 218.131 336.421 218.188 336.08V336.014C218.32 335.193 218.2 334.554 217.828 334.1C217.461 333.638 216.823 333.408 215.913 333.408C214.965 333.408 214.169 333.616 213.525 334.033C212.887 334.45 212.416 334.918 212.113 335.436L209.573 334.829C210.028 333.945 210.606 333.231 211.307 332.687C212.015 332.138 212.789 331.74 213.629 331.493C214.47 331.241 215.329 331.114 216.207 331.114C216.788 331.114 217.392 331.184 218.017 331.323C218.643 331.455 219.211 331.702 219.723 332.062C220.241 332.422 220.626 332.937 220.879 333.607C221.132 334.27 221.17 335.132 220.993 336.194L219.391 345.86H216.624L216.965 343.87H216.851C216.611 344.237 216.276 344.597 215.847 344.951C215.424 345.304 214.905 345.598 214.293 345.832C213.68 346.066 212.972 346.183 212.17 346.183ZM213.136 343.908C213.926 343.908 214.624 343.753 215.231 343.444C215.844 343.134 216.34 342.73 216.719 342.231C217.098 341.725 217.335 341.185 217.429 340.61L217.742 338.734C217.622 338.835 217.411 338.926 217.107 339.009C216.81 339.091 216.475 339.163 216.103 339.227C215.73 339.29 215.364 339.343 215.003 339.388C214.65 339.432 214.356 339.473 214.122 339.511C213.566 339.58 213.045 339.697 212.558 339.861C212.078 340.026 211.677 340.263 211.355 340.572C211.033 340.876 210.83 341.28 210.748 341.785C210.635 342.487 210.802 343.017 211.251 343.377C211.705 343.731 212.334 343.908 213.136 343.908ZM222.365 345.86L224.791 331.304H227.53L227.141 333.616H227.293C227.684 332.833 228.256 332.217 229.008 331.768C229.76 331.313 230.562 331.086 231.415 331.086C231.598 331.086 231.807 331.092 232.041 331.105C232.274 331.111 232.464 331.127 232.609 331.152L232.154 333.863C232.047 333.831 231.851 333.796 231.567 333.758C231.283 333.714 230.989 333.692 230.685 333.692C230.022 333.692 229.406 333.834 228.837 334.118C228.269 334.396 227.792 334.785 227.406 335.284C227.021 335.777 226.772 336.339 226.658 336.971L225.198 345.86H222.365ZM241.939 331.304L241.57 333.578H233.619L233.988 331.304H241.939ZM236.689 327.816H239.523L237.229 341.586C237.141 342.136 237.157 342.55 237.277 342.828C237.397 343.099 237.58 343.286 237.827 343.387C238.079 343.482 238.36 343.529 238.67 343.529C238.897 343.529 239.096 343.513 239.267 343.482C239.438 343.45 239.573 343.425 239.675 343.406L239.826 345.747C239.637 345.81 239.381 345.873 239.059 345.936C238.743 346.006 238.357 346.044 237.902 346.05C237.157 346.063 236.484 345.93 235.884 345.652C235.284 345.368 234.835 344.938 234.538 344.363C234.241 343.782 234.168 343.052 234.32 342.174L236.689 327.816Z" fill="#E9FF6B"/>
</svg>
