<svg width="1920" height="651" viewBox="0 0 1920 651" fill="none" xmlns="http://www.w3.org/2000/svg">
<rect width="1920" height="650.667" fill="#1D1C22"/>
<path d="M73.7651 342.827H65.2651C65.0226 341.433 64.5757 340.198 63.9242 339.123C63.2726 338.032 62.462 337.107 61.4923 336.35C60.5226 335.592 59.4166 335.024 58.1742 334.645C56.9469 334.251 55.6211 334.054 54.1969 334.054C51.6666 334.054 49.4242 334.691 47.4696 335.963C45.5151 337.221 43.9848 339.069 42.8787 341.509C41.7726 343.933 41.2196 346.895 41.2196 350.395C41.2196 353.956 41.7726 356.956 42.8787 359.395C43.9999 361.819 45.5302 363.653 47.4696 364.895C49.4242 366.123 51.659 366.736 54.1742 366.736C55.5681 366.736 56.8711 366.554 58.0833 366.191C59.3105 365.812 60.409 365.259 61.3787 364.532C62.3636 363.804 63.1893 362.91 63.856 361.85C64.5378 360.789 65.0075 359.577 65.2651 358.213L73.7651 358.259C73.4469 360.471 72.7575 362.547 71.6969 364.486C70.6514 366.426 69.2802 368.138 67.5833 369.623C65.8863 371.092 63.9014 372.244 61.6287 373.077C59.356 373.895 56.8333 374.304 54.0605 374.304C49.9696 374.304 46.3181 373.357 43.106 371.463C39.8939 369.569 37.3636 366.835 35.5151 363.259C33.6666 359.683 32.7423 355.395 32.7423 350.395C32.7423 345.38 33.6742 341.092 35.5378 337.532C37.4014 333.956 39.9393 331.221 43.1514 329.327C46.3636 327.433 49.9999 326.486 54.0605 326.486C56.6514 326.486 59.0605 326.85 61.2878 327.577C63.5151 328.304 65.4999 329.373 67.2423 330.782C68.9848 332.176 70.4166 333.888 71.5378 335.918C72.6742 337.933 73.4166 340.236 73.7651 342.827ZM120.518 350.395C120.518 355.41 119.578 359.706 117.699 363.282C115.836 366.842 113.29 369.569 110.063 371.463C106.851 373.357 103.207 374.304 99.1312 374.304C95.0554 374.304 91.4039 373.357 88.1767 371.463C84.9645 369.554 82.4191 366.819 80.5403 363.259C78.6767 359.683 77.7448 355.395 77.7448 350.395C77.7448 345.38 78.6767 341.092 80.5403 337.532C82.4191 333.956 84.9645 331.221 88.1767 329.327C91.4039 327.433 95.0554 326.486 99.1312 326.486C103.207 326.486 106.851 327.433 110.063 329.327C113.29 331.221 115.836 333.956 117.699 337.532C119.578 341.092 120.518 345.38 120.518 350.395ZM112.04 350.395C112.04 346.865 111.487 343.888 110.381 341.463C109.29 339.024 107.775 337.183 105.836 335.941C103.896 334.683 101.662 334.054 99.1312 334.054C96.6009 334.054 94.3661 334.683 92.4267 335.941C90.4873 337.183 88.9645 339.024 87.8585 341.463C86.7676 343.888 86.2221 346.865 86.2221 350.395C86.2221 353.926 86.7676 356.91 87.8585 359.35C88.9645 361.774 90.4873 363.615 92.4267 364.873C94.3661 366.115 96.6009 366.736 99.1312 366.736C101.662 366.736 103.896 366.115 105.836 364.873C107.775 363.615 109.29 361.774 110.381 359.35C111.487 356.91 112.04 353.926 112.04 350.395ZM164.179 327.123V373.668H156.679L134.747 341.963H134.361V373.668H125.929V327.123H133.475L155.384 358.85H155.793V327.123H164.179ZM168.761 334.191V327.123H205.898V334.191H191.511V373.668H183.148V334.191H168.761ZM210.849 373.668H201.849L218.235 327.123H228.644L245.053 373.668H236.053L223.622 336.668H223.258L210.849 373.668ZM211.144 355.418H235.69V362.191H211.144V355.418ZM286.278 342.827H277.778C277.535 341.433 277.088 340.198 276.437 339.123C275.785 338.032 274.975 337.107 274.005 336.35C273.035 335.592 271.929 335.024 270.687 334.645C269.459 334.251 268.134 334.054 266.709 334.054C264.179 334.054 261.937 334.691 259.982 335.963C258.028 337.221 256.497 339.069 255.391 341.509C254.285 343.933 253.732 346.895 253.732 350.395C253.732 353.956 254.285 356.956 255.391 359.395C256.512 361.819 258.043 363.653 259.982 364.895C261.937 366.123 264.172 366.736 266.687 366.736C268.081 366.736 269.384 366.554 270.596 366.191C271.823 365.812 272.922 365.259 273.891 364.532C274.876 363.804 275.702 362.91 276.368 361.85C277.05 360.789 277.52 359.577 277.778 358.213L286.278 358.259C285.959 360.471 285.27 362.547 284.209 364.486C283.164 366.426 281.793 368.138 280.096 369.623C278.399 371.092 276.414 372.244 274.141 373.077C271.868 373.895 269.346 374.304 266.573 374.304C262.482 374.304 258.831 373.357 255.618 371.463C252.406 369.569 249.876 366.835 248.028 363.259C246.179 359.683 245.255 355.395 245.255 350.395C245.255 345.38 246.187 341.092 248.05 337.532C249.914 333.956 252.452 331.221 255.664 329.327C258.876 327.433 262.512 326.486 266.573 326.486C269.164 326.486 271.573 326.85 273.8 327.577C276.028 328.304 278.012 329.373 279.755 330.782C281.497 332.176 282.929 333.888 284.05 335.918C285.187 337.933 285.929 340.236 286.278 342.827ZM289.394 334.191V327.123H326.53V334.191H312.144V373.668H303.78V334.191H289.394Z" fill="#FF007A"/>
<path d="M455.257 327.123H465.576L479.394 360.85H479.939L493.757 327.123H504.076V373.668H495.985V341.691H495.553L482.689 373.532H476.644L463.78 341.623H463.348V373.668H455.257V327.123ZM510.697 373.668V327.123H540.97V334.191H519.129V346.827H539.402V353.895H519.129V366.6H541.152V373.668H510.697Z" fill="#FF007A"/>
<path d="M673.924 373.668V327.123H703.742V334.191H682.356V346.827H701.697V353.895H682.356V373.668H673.924ZM750.455 350.395C750.455 355.41 749.516 359.706 747.637 363.282C745.773 366.842 743.228 369.569 740.001 371.463C736.788 373.357 733.144 374.304 729.069 374.304C724.993 374.304 721.341 373.357 718.114 371.463C714.902 369.554 712.357 366.819 710.478 363.259C708.614 359.683 707.682 355.395 707.682 350.395C707.682 345.38 708.614 341.092 710.478 337.532C712.357 333.956 714.902 331.221 718.114 329.327C721.341 327.433 724.993 326.486 729.069 326.486C733.144 326.486 736.788 327.433 740.001 329.327C743.228 331.221 745.773 333.956 747.637 337.532C749.516 341.092 750.455 345.38 750.455 350.395ZM741.978 350.395C741.978 346.865 741.425 343.888 740.319 341.463C739.228 339.024 737.713 337.183 735.773 335.941C733.834 334.683 731.599 334.054 729.069 334.054C726.538 334.054 724.304 334.683 722.364 335.941C720.425 337.183 718.902 339.024 717.796 341.463C716.705 343.888 716.16 346.865 716.16 350.395C716.16 353.926 716.705 356.91 717.796 359.35C718.902 361.774 720.425 363.615 722.364 364.873C724.304 366.115 726.538 366.736 729.069 366.736C731.599 366.736 733.834 366.115 735.773 364.873C737.713 363.615 739.228 361.774 740.319 359.35C741.425 356.91 741.978 353.926 741.978 350.395ZM755.867 373.668V327.123H773.321C776.897 327.123 779.897 327.744 782.321 328.986C784.761 330.229 786.602 331.971 787.844 334.213C789.102 336.441 789.73 339.039 789.73 342.009C789.73 344.994 789.094 347.585 787.821 349.782C786.564 351.963 784.708 353.653 782.253 354.85C779.798 356.032 776.783 356.623 773.208 356.623H760.776V349.623H772.071C774.162 349.623 775.874 349.335 777.208 348.759C778.541 348.168 779.526 347.312 780.162 346.191C780.814 345.054 781.139 343.66 781.139 342.009C781.139 340.357 780.814 338.948 780.162 337.782C779.511 336.6 778.518 335.706 777.185 335.1C775.852 334.479 774.132 334.168 772.026 334.168H764.298V373.668H755.867ZM779.912 352.577L791.435 373.668H782.026L770.708 352.577H779.912Z" fill="#FF007A"/>
<path d="M931.72 373.668L918.583 327.123H927.651L936.038 361.327H936.47L945.424 327.123H953.674L962.651 361.35H963.061L971.447 327.123H980.515L967.379 373.668H959.061L949.742 341.009H949.379L940.038 373.668H931.72ZM1022.89 350.395C1022.89 355.41 1021.95 359.706 1020.07 363.282C1018.21 366.842 1015.67 369.569 1012.44 371.463C1009.23 373.357 1005.58 374.304 1001.51 374.304C997.43 374.304 993.779 373.357 990.552 371.463C987.34 369.554 984.794 366.819 982.915 363.259C981.052 359.683 980.12 355.395 980.12 350.395C980.12 345.38 981.052 341.092 982.915 337.532C984.794 333.956 987.34 331.221 990.552 329.327C993.779 327.433 997.43 326.486 1001.51 326.486C1005.58 326.486 1009.23 327.433 1012.44 329.327C1015.67 331.221 1018.21 333.956 1020.07 337.532C1021.95 341.092 1022.89 345.38 1022.89 350.395ZM1014.42 350.395C1014.42 346.865 1013.86 343.888 1012.76 341.463C1011.67 339.024 1010.15 337.183 1008.21 335.941C1006.27 334.683 1004.04 334.054 1001.51 334.054C998.976 334.054 996.741 334.683 994.802 335.941C992.862 337.183 991.34 339.024 990.233 341.463C989.143 343.888 988.597 346.865 988.597 350.395C988.597 353.926 989.143 356.91 990.233 359.35C991.34 361.774 992.862 363.615 994.802 364.873C996.741 366.115 998.976 366.736 1001.51 366.736C1004.04 366.736 1006.27 366.115 1008.21 364.873C1010.15 363.615 1011.67 361.774 1012.76 359.35C1013.86 356.91 1014.42 353.926 1014.42 350.395ZM1028.3 373.668V327.123H1045.76C1049.33 327.123 1052.33 327.744 1054.76 328.986C1057.2 330.229 1059.04 331.971 1060.28 334.213C1061.54 336.441 1062.17 339.039 1062.17 342.009C1062.17 344.994 1061.53 347.585 1060.26 349.782C1059 351.963 1057.15 353.653 1054.69 354.85C1052.24 356.032 1049.22 356.623 1045.65 356.623H1033.21V349.623H1044.51C1046.6 349.623 1048.31 349.335 1049.65 348.759C1050.98 348.168 1051.96 347.312 1052.6 346.191C1053.25 345.054 1053.58 343.66 1053.58 342.009C1053.58 340.357 1053.25 338.948 1052.6 337.782C1051.95 336.6 1050.96 335.706 1049.62 335.1C1048.29 334.479 1046.57 334.168 1044.46 334.168H1036.74V373.668H1028.3ZM1052.35 352.577L1063.87 373.668H1054.46L1043.15 352.577H1052.35ZM1067.37 373.668V327.123H1075.8V348.509H1076.37L1094.53 327.123H1104.82L1086.82 348.009L1104.98 373.668H1094.85L1080.96 353.713L1075.8 359.804V373.668H1067.37Z" fill="#FF007A"/>
<path d="M1243.69 327.123V373.668H1235.26V327.123H1243.69Z" fill="#FF007A"/>
<path d="M1416.17 327.123V373.668H1408.67L1386.74 341.963H1386.36V373.668H1377.92V327.123H1385.47L1407.38 358.85H1407.79V327.123H1416.17ZM1422.8 373.668V327.123H1453.07V334.191H1431.23V346.827H1451.51V353.895H1431.23V366.6H1453.26V373.668H1422.8ZM1459.12 373.668V327.123H1489.39V334.191H1467.55V346.827H1487.82V353.895H1467.55V366.6H1489.57V373.668H1459.12ZM1511.2 373.668H1495.43V327.123H1511.52C1516.14 327.123 1520.11 328.054 1523.43 329.918C1526.76 331.766 1529.33 334.426 1531.11 337.895C1532.9 341.365 1533.8 345.516 1533.8 350.35C1533.8 355.198 1532.89 359.365 1531.09 362.85C1529.3 366.335 1526.72 369.009 1523.34 370.873C1519.98 372.736 1515.93 373.668 1511.2 373.668ZM1503.86 366.373H1510.8C1514.04 366.373 1516.74 365.782 1518.91 364.6C1521.08 363.403 1522.7 361.623 1523.8 359.259C1524.89 356.88 1525.43 353.91 1525.43 350.35C1525.43 346.789 1524.89 343.835 1523.8 341.486C1522.7 339.123 1521.09 337.357 1518.95 336.191C1516.83 335.009 1514.2 334.418 1511.05 334.418H1503.86V366.373Z" fill="#FF007A"/>
<path d="M1665.92 327.123H1676.24L1690.06 360.85H1690.61L1704.42 327.123H1714.74V373.668H1706.65V341.691H1706.22L1693.36 373.532H1687.31L1674.45 341.623H1674.02V373.668H1665.92V327.123ZM1762.96 350.395C1762.96 355.41 1762.02 359.706 1760.14 363.282C1758.27 366.842 1755.73 369.569 1752.5 371.463C1749.29 373.357 1745.64 374.304 1741.57 374.304C1737.49 374.304 1733.84 373.357 1730.61 371.463C1727.4 369.554 1724.86 366.819 1722.98 363.259C1721.11 359.683 1720.18 355.395 1720.18 350.395C1720.18 345.38 1721.11 341.092 1722.98 337.532C1724.86 333.956 1727.4 331.221 1730.61 329.327C1733.84 327.433 1737.49 326.486 1741.57 326.486C1745.64 326.486 1749.29 327.433 1752.5 329.327C1755.73 331.221 1758.27 333.956 1760.14 337.532C1762.02 341.092 1762.96 345.38 1762.96 350.395ZM1754.48 350.395C1754.48 346.865 1753.92 343.888 1752.82 341.463C1751.73 339.024 1750.21 337.183 1748.27 335.941C1746.33 334.683 1744.1 334.054 1741.57 334.054C1739.04 334.054 1736.8 334.683 1734.86 335.941C1732.92 337.183 1731.4 339.024 1730.3 341.463C1729.21 343.888 1728.66 346.865 1728.66 350.395C1728.66 353.926 1729.21 356.91 1730.3 359.35C1731.4 361.774 1732.92 363.615 1734.86 364.873C1736.8 366.115 1739.04 366.736 1741.57 366.736C1744.1 366.736 1746.33 366.115 1748.27 364.873C1750.21 363.615 1751.73 361.774 1752.82 359.35C1753.92 356.91 1754.48 353.926 1754.48 350.395ZM1806.62 327.123V373.668H1799.12L1777.18 341.963H1776.8V373.668H1768.37V327.123H1775.91L1797.82 358.85H1798.23V327.123H1806.62ZM1813.24 373.668V327.123H1843.52V334.191H1821.68V346.827H1841.95V353.895H1821.68V366.6H1843.7V373.668H1813.24ZM1846.38 327.123H1855.9L1867.29 347.713H1867.74L1879.13 327.123H1888.65L1871.72 356.304V373.668H1863.31V356.304L1846.38 327.123Z" fill="#FF007A"/>
<path d="M413.448 624.334V609.789H416.082V615.946H422.823V609.789H425.465V624.334H422.823V618.155H416.082V624.334H413.448ZM435.435 613.787C435.369 613.167 435.09 612.684 434.597 612.338C434.109 611.993 433.475 611.82 432.694 611.82C432.144 611.82 431.673 611.903 431.28 612.068C430.887 612.234 430.587 612.459 430.378 612.743C430.17 613.027 430.064 613.352 430.059 613.716C430.059 614.019 430.127 614.282 430.265 614.504C430.407 614.727 430.599 614.916 430.84 615.073C431.082 615.224 431.349 615.352 431.643 615.456C431.936 615.56 432.232 615.648 432.53 615.719L433.894 616.06C434.443 616.188 434.971 616.36 435.478 616.578C435.989 616.796 436.446 617.071 436.849 617.402C437.256 617.734 437.578 618.134 437.814 618.602C438.051 619.071 438.17 619.62 438.17 620.25C438.17 621.102 437.952 621.853 437.516 622.502C437.081 623.146 436.451 623.65 435.627 624.014C434.808 624.374 433.816 624.554 432.651 624.554C431.519 624.554 430.537 624.379 429.704 624.029C428.875 623.678 428.226 623.167 427.758 622.494C427.294 621.822 427.043 621.003 427.005 620.037H429.597C429.635 620.544 429.791 620.965 430.066 621.301C430.34 621.637 430.698 621.888 431.138 622.054C431.583 622.22 432.081 622.303 432.63 622.303C433.203 622.303 433.705 622.218 434.135 622.047C434.571 621.872 434.912 621.63 435.158 621.323C435.404 621.01 435.53 620.646 435.535 620.229C435.53 619.85 435.419 619.538 435.201 619.291C434.983 619.04 434.678 618.832 434.285 618.666C433.896 618.496 433.442 618.344 432.921 618.212L431.266 617.786C430.068 617.478 429.121 617.012 428.425 616.387C427.734 615.757 427.388 614.921 427.388 613.879C427.388 613.022 427.62 612.272 428.084 611.628C428.553 610.984 429.19 610.485 429.995 610.129C430.8 609.77 431.711 609.59 432.729 609.59C433.761 609.59 434.666 609.77 435.442 610.129C436.224 610.485 436.837 610.979 437.282 611.614C437.727 612.244 437.957 612.968 437.971 613.787H435.435ZM439.719 624.334V609.789H449.179V611.997H442.354V615.946H448.689V618.155H442.354V622.125H449.236V624.334H439.719ZM463.133 613.787C463.067 613.167 462.787 612.684 462.295 612.338C461.807 611.993 461.173 611.82 460.391 611.82C459.842 611.82 459.371 611.903 458.978 612.068C458.585 612.234 458.284 612.459 458.076 612.743C457.868 613.027 457.761 613.352 457.756 613.716C457.756 614.019 457.825 614.282 457.962 614.504C458.104 614.727 458.296 614.916 458.538 615.073C458.779 615.224 459.047 615.352 459.34 615.456C459.634 615.56 459.93 615.648 460.228 615.719L461.592 616.06C462.141 616.188 462.669 616.36 463.175 616.578C463.687 616.796 464.144 617.071 464.546 617.402C464.953 617.734 465.275 618.134 465.512 618.602C465.749 619.071 465.867 619.62 465.867 620.25C465.867 621.102 465.649 621.853 465.214 622.502C464.778 623.146 464.148 623.65 463.325 624.014C462.505 624.374 461.514 624.554 460.349 624.554C459.217 624.554 458.235 624.379 457.401 624.029C456.573 623.678 455.924 623.167 455.455 622.494C454.991 621.822 454.74 621.003 454.702 620.037H457.295C457.333 620.544 457.489 620.965 457.764 621.301C458.038 621.637 458.396 621.888 458.836 622.054C459.281 622.22 459.778 622.303 460.327 622.303C460.9 622.303 461.402 622.218 461.833 622.047C462.269 621.872 462.61 621.63 462.856 621.323C463.102 621.01 463.228 620.646 463.232 620.229C463.228 619.85 463.116 619.538 462.898 619.291C462.681 619.04 462.375 618.832 461.982 618.666C461.594 618.496 461.139 618.344 460.619 618.212L458.964 617.786C457.766 617.478 456.819 617.012 456.123 616.387C455.432 615.757 455.086 614.921 455.086 613.879C455.086 613.022 455.318 612.272 455.782 611.628C456.251 610.984 456.888 610.485 457.693 610.129C458.497 609.77 459.409 609.59 460.427 609.59C461.459 609.59 462.363 609.77 463.14 610.129C463.921 610.485 464.534 610.979 464.979 611.614C465.425 612.244 465.654 612.968 465.668 613.787H463.133ZM479.867 614.696H477.21C477.135 614.261 476.995 613.875 476.791 613.539C476.588 613.198 476.334 612.909 476.031 612.672C475.728 612.435 475.383 612.258 474.994 612.139C474.611 612.016 474.197 611.955 473.752 611.955C472.961 611.955 472.26 612.154 471.649 612.551C471.038 612.944 470.56 613.522 470.215 614.284C469.869 615.042 469.696 615.968 469.696 617.061C469.696 618.174 469.869 619.111 470.215 619.874C470.565 620.631 471.043 621.204 471.649 621.593C472.26 621.976 472.958 622.168 473.744 622.168C474.18 622.168 474.587 622.111 474.966 621.997C475.35 621.879 475.693 621.706 475.996 621.479C476.304 621.252 476.562 620.972 476.77 620.641C476.983 620.309 477.13 619.931 477.21 619.504L479.867 619.519C479.767 620.21 479.552 620.859 479.22 621.465C478.894 622.071 478.465 622.606 477.935 623.07C477.404 623.529 476.784 623.889 476.074 624.149C475.364 624.405 474.575 624.533 473.709 624.533C472.431 624.533 471.289 624.237 470.286 623.645C469.282 623.053 468.491 622.199 467.913 621.081C467.336 619.964 467.047 618.624 467.047 617.061C467.047 615.494 467.338 614.154 467.921 613.041C468.503 611.924 469.296 611.069 470.3 610.477C471.304 609.886 472.44 609.59 473.709 609.59C474.519 609.59 475.271 609.703 475.967 609.931C476.663 610.158 477.284 610.492 477.828 610.932C478.373 611.368 478.82 611.903 479.171 612.537C479.526 613.167 479.758 613.887 479.867 614.696ZM481.48 624.334V609.789H484.115V615.946H490.855V609.789H493.497V624.334H490.855V618.155H484.115V624.334H481.48ZM508.56 617.061C508.56 618.628 508.266 619.971 507.679 621.088C507.096 622.201 506.301 623.053 505.293 623.645C504.289 624.237 503.15 624.533 501.876 624.533C500.603 624.533 499.462 624.237 498.453 623.645C497.449 623.048 496.654 622.194 496.067 621.081C495.484 619.964 495.193 618.624 495.193 617.061C495.193 615.494 495.484 614.154 496.067 613.041C496.654 611.924 497.449 611.069 498.453 610.477C499.462 609.886 500.603 609.59 501.876 609.59C503.15 609.59 504.289 609.886 505.293 610.477C506.301 611.069 507.096 611.924 507.679 613.041C508.266 614.154 508.56 615.494 508.56 617.061ZM505.91 617.061C505.91 615.958 505.738 615.028 505.392 614.27C505.051 613.508 504.578 612.932 503.971 612.544C503.365 612.151 502.667 611.955 501.876 611.955C501.086 611.955 500.387 612.151 499.781 612.544C499.175 612.932 498.699 613.508 498.354 614.27C498.013 615.028 497.842 615.958 497.842 617.061C497.842 618.164 498.013 619.097 498.354 619.86C498.699 620.617 499.175 621.192 499.781 621.585C500.387 621.974 501.086 622.168 501.876 622.168C502.667 622.168 503.365 621.974 503.971 621.585C504.578 621.192 505.051 620.617 505.392 619.86C505.738 619.097 505.91 618.164 505.91 617.061ZM523.248 617.061C523.248 618.628 522.954 619.971 522.367 621.088C521.785 622.201 520.989 623.053 519.981 623.645C518.977 624.237 517.838 624.533 516.565 624.533C515.291 624.533 514.15 624.237 513.141 623.645C512.138 623.048 511.342 622.194 510.755 621.081C510.173 619.964 509.881 618.624 509.881 617.061C509.881 615.494 510.173 614.154 510.755 613.041C511.342 611.924 512.138 611.069 513.141 610.477C514.15 609.886 515.291 609.59 516.565 609.59C517.838 609.59 518.977 609.886 519.981 610.477C520.989 611.069 521.785 611.924 522.367 613.041C522.954 614.154 523.248 615.494 523.248 617.061ZM520.599 617.061C520.599 615.958 520.426 615.028 520.08 614.27C519.739 613.508 519.266 612.932 518.66 612.544C518.054 612.151 517.355 611.955 516.565 611.955C515.774 611.955 515.075 612.151 514.469 612.544C513.863 612.932 513.388 613.508 513.042 614.27C512.701 615.028 512.531 615.958 512.531 617.061C512.531 618.164 512.701 619.097 513.042 619.86C513.388 620.617 513.863 621.192 514.469 621.585C515.075 621.974 515.774 622.168 516.565 622.168C517.355 622.168 518.054 621.974 518.66 621.585C519.266 621.192 519.739 620.617 520.08 619.86C520.426 619.097 520.599 618.164 520.599 617.061ZM524.939 624.334V609.789H527.574V622.125H533.98V624.334H524.939ZM539.628 624.334V609.789H545.083C546.2 609.789 547.137 609.997 547.895 610.414C548.657 610.83 549.233 611.403 549.621 612.132C550.014 612.857 550.21 613.681 550.21 614.604C550.21 615.537 550.014 616.365 549.621 617.09C549.228 617.814 548.648 618.385 547.881 618.801C547.114 619.213 546.169 619.419 545.047 619.419H541.432V617.253H544.692C545.345 617.253 545.88 617.139 546.297 616.912C546.714 616.685 547.021 616.372 547.22 615.975C547.424 615.577 547.526 615.12 547.526 614.604C547.526 614.088 547.424 613.633 547.22 613.24C547.021 612.847 546.711 612.542 546.29 612.324C545.873 612.102 545.336 611.99 544.678 611.99H542.263V624.334H539.628ZM551.699 624.334V609.789H557.154C558.271 609.789 559.209 609.983 559.966 610.371C560.728 610.759 561.304 611.304 561.692 612.004C562.085 612.7 562.281 613.512 562.281 614.441C562.281 615.373 562.083 616.183 561.685 616.869C561.292 617.551 560.712 618.079 559.945 618.453C559.178 618.823 558.236 619.007 557.118 619.007H553.233V616.82H556.763C557.416 616.82 557.951 616.73 558.368 616.55C558.785 616.365 559.093 616.098 559.291 615.747C559.495 615.392 559.597 614.957 559.597 614.441C559.597 613.924 559.495 613.484 559.291 613.119C559.088 612.75 558.778 612.471 558.361 612.281C557.944 612.087 557.407 611.99 556.749 611.99H554.334V624.334H551.699ZM559.213 617.743L562.814 624.334H559.874L556.337 617.743H559.213ZM576.904 617.061C576.904 618.628 576.611 619.971 576.023 621.088C575.441 622.201 574.646 623.053 573.637 623.645C572.633 624.237 571.495 624.533 570.221 624.533C568.947 624.533 567.806 624.237 566.798 623.645C565.794 623.048 564.998 622.194 564.411 621.081C563.829 619.964 563.538 618.624 563.538 617.061C563.538 615.494 563.829 614.154 564.411 613.041C564.998 611.924 565.794 611.069 566.798 610.477C567.806 609.886 568.947 609.59 570.221 609.59C571.495 609.59 572.633 609.886 573.637 610.477C574.646 611.069 575.441 611.924 576.023 613.041C576.611 614.154 576.904 615.494 576.904 617.061ZM574.255 617.061C574.255 615.958 574.082 615.028 573.736 614.27C573.396 613.508 572.922 612.932 572.316 612.544C571.71 612.151 571.012 611.955 570.221 611.955C569.43 611.955 568.732 612.151 568.126 612.544C567.52 612.932 567.044 613.508 566.698 614.27C566.357 615.028 566.187 615.958 566.187 617.061C566.187 618.164 566.357 619.097 566.698 619.86C567.044 620.617 567.52 621.192 568.126 621.585C568.732 621.974 569.43 622.168 570.221 622.168C571.012 622.168 571.71 621.974 572.316 621.585C572.922 621.192 573.396 620.617 573.736 619.86C574.082 619.097 574.255 618.164 574.255 617.061ZM584.334 609.789H586.947V620.016C586.943 620.953 586.744 621.761 586.351 622.438C585.958 623.11 585.409 623.628 584.703 623.993C584.002 624.353 583.186 624.533 582.253 624.533C581.401 624.533 580.634 624.381 579.952 624.078C579.275 623.771 578.737 623.316 578.34 622.715C577.942 622.113 577.743 621.365 577.743 620.47H580.364C580.368 620.863 580.454 621.202 580.619 621.486C580.79 621.77 581.024 621.988 581.322 622.139C581.621 622.291 581.964 622.367 582.352 622.367C582.774 622.367 583.131 622.279 583.425 622.104C583.718 621.924 583.941 621.659 584.092 621.308C584.249 620.958 584.329 620.527 584.334 620.016V609.789ZM589.006 624.334V609.789H598.466V611.997H591.641V615.946H597.976V618.155H591.641V622.125H598.523V624.334H589.006ZM612.805 614.696H610.149C610.073 614.261 609.933 613.875 609.73 613.539C609.526 613.198 609.273 612.909 608.97 612.672C608.667 612.435 608.321 612.258 607.933 612.139C607.549 612.016 607.135 611.955 606.69 611.955C605.899 611.955 605.198 612.154 604.588 612.551C603.977 612.944 603.499 613.522 603.153 614.284C602.807 615.042 602.634 615.968 602.634 617.061C602.634 618.174 602.807 619.111 603.153 619.874C603.503 620.631 603.981 621.204 604.588 621.593C605.198 621.976 605.897 622.168 606.683 622.168C607.118 622.168 607.526 622.111 607.904 621.997C608.288 621.879 608.631 621.706 608.934 621.479C609.242 621.252 609.5 620.972 609.708 620.641C609.921 620.309 610.068 619.931 610.149 619.504L612.805 619.519C612.705 620.21 612.49 620.859 612.159 621.465C611.832 622.071 611.403 622.606 610.873 623.07C610.343 623.529 609.722 623.889 609.012 624.149C608.302 624.405 607.514 624.533 606.647 624.533C605.369 624.533 604.228 624.237 603.224 623.645C602.22 623.053 601.429 622.199 600.852 621.081C600.274 619.964 599.985 618.624 599.985 617.061C599.985 615.494 600.276 614.154 600.859 613.041C601.441 611.924 602.234 611.069 603.238 610.477C604.242 609.886 605.378 609.59 606.647 609.59C607.457 609.59 608.21 609.703 608.906 609.931C609.602 610.158 610.222 610.492 610.767 610.932C611.311 611.368 611.758 611.903 612.109 612.537C612.464 613.167 612.696 613.887 612.805 614.696ZM613.779 611.997V609.789H625.384V611.997H620.888V624.334H618.274V611.997H613.779ZM630.84 624.334V622.431L635.89 617.48C636.373 616.993 636.775 616.559 637.097 616.181C637.419 615.802 637.66 615.435 637.821 615.08C637.982 614.725 638.063 614.346 638.063 613.943C638.063 613.484 637.959 613.091 637.75 612.764C637.542 612.433 637.256 612.177 636.891 611.997C636.526 611.817 636.112 611.727 635.648 611.727C635.17 611.727 634.751 611.827 634.391 612.026C634.031 612.22 633.752 612.497 633.553 612.857C633.359 613.217 633.262 613.645 633.262 614.142H630.755C630.755 613.219 630.965 612.416 631.387 611.735C631.808 611.053 632.388 610.525 633.127 610.151C633.87 609.777 634.722 609.59 635.684 609.59C636.659 609.59 637.516 609.772 638.255 610.137C638.993 610.501 639.566 611.001 639.973 611.635C640.385 612.27 640.591 612.994 640.591 613.808C640.591 614.353 640.487 614.888 640.279 615.414C640.07 615.939 639.704 616.521 639.178 617.161C638.657 617.8 637.926 618.574 636.983 619.483L634.476 622.033V622.132H640.811V624.334H630.84ZM647.838 624.611C646.669 624.611 645.665 624.315 644.827 623.723C643.993 623.127 643.352 622.267 642.902 621.145C642.457 620.018 642.234 618.662 642.234 617.075C642.239 615.489 642.464 614.14 642.909 613.027C643.359 611.91 644.001 611.057 644.834 610.47C645.672 609.883 646.673 609.59 647.838 609.59C649.003 609.59 650.004 609.883 650.842 610.47C651.681 611.057 652.322 611.91 652.767 613.027C653.217 614.145 653.442 615.494 653.442 617.075C653.442 618.666 653.217 620.025 652.767 621.152C652.322 622.274 651.681 623.131 650.842 623.723C650.009 624.315 649.008 624.611 647.838 624.611ZM647.838 622.388C648.747 622.388 649.465 621.941 649.99 621.046C650.52 620.146 650.786 618.823 650.786 617.075C650.786 615.92 650.665 614.95 650.423 614.164C650.182 613.378 649.841 612.786 649.401 612.388C648.96 611.985 648.44 611.784 647.838 611.784C646.934 611.784 646.219 612.234 645.693 613.134C645.168 614.029 644.903 615.343 644.898 617.075C644.893 618.235 645.009 619.211 645.246 620.002C645.487 620.792 645.828 621.389 646.269 621.791C646.709 622.189 647.232 622.388 647.838 622.388ZM655.002 624.334V622.431L660.051 617.48C660.534 616.993 660.937 616.559 661.259 616.181C661.581 615.802 661.822 615.435 661.983 615.08C662.144 614.725 662.225 614.346 662.225 613.943C662.225 613.484 662.12 613.091 661.912 612.764C661.704 612.433 661.417 612.177 661.053 611.997C660.688 611.817 660.274 611.727 659.81 611.727C659.332 611.727 658.913 611.827 658.553 612.026C658.193 612.22 657.914 612.497 657.715 612.857C657.521 613.217 657.423 613.645 657.423 614.142H654.916C654.916 613.219 655.127 612.416 655.548 611.735C655.97 611.053 656.55 610.525 657.289 610.151C658.032 609.777 658.884 609.59 659.845 609.59C660.821 609.59 661.678 609.772 662.416 610.137C663.155 610.501 663.728 611.001 664.135 611.635C664.547 612.27 664.753 612.994 664.753 613.808C664.753 614.353 664.649 614.888 664.441 615.414C664.232 615.939 663.865 616.521 663.34 617.161C662.819 617.8 662.087 618.574 661.145 619.483L658.638 622.033V622.132H664.973V624.334H655.002ZM671.68 624.533C670.733 624.533 669.886 624.355 669.138 624C668.39 623.64 667.795 623.148 667.355 622.523C666.919 621.898 666.687 621.183 666.659 620.378H669.216C669.263 620.975 669.521 621.462 669.99 621.841C670.459 622.215 671.022 622.402 671.68 622.402C672.196 622.402 672.656 622.284 673.058 622.047C673.461 621.81 673.778 621.481 674.01 621.06C674.242 620.638 674.355 620.158 674.351 619.618C674.355 619.069 674.239 618.581 674.003 618.155C673.766 617.729 673.442 617.395 673.03 617.154C672.618 616.907 672.144 616.784 671.609 616.784C671.174 616.78 670.745 616.86 670.324 617.026C669.902 617.191 669.569 617.409 669.322 617.679L666.943 617.289L667.703 609.789H676.141V611.99H669.883L669.464 615.847H669.55C669.819 615.53 670.201 615.267 670.693 615.058C671.185 614.845 671.725 614.739 672.312 614.739C673.193 614.739 673.979 614.947 674.67 615.364C675.362 615.776 675.906 616.344 676.304 617.068C676.702 617.793 676.9 618.621 676.9 619.554C676.9 620.515 676.678 621.372 676.233 622.125C675.793 622.873 675.179 623.463 674.393 623.894C673.612 624.32 672.708 624.533 671.68 624.533Z" fill="#FF007A"/>
<path d="M1310.41 616.308L1308.07 616.564C1308 616.327 1307.88 616.105 1307.72 615.896C1307.56 615.688 1307.34 615.52 1307.07 615.392C1306.79 615.264 1306.45 615.2 1306.06 615.2C1305.52 615.2 1305.07 615.316 1304.71 615.548C1304.35 615.78 1304.17 616.081 1304.17 616.45C1304.17 616.768 1304.29 617.026 1304.52 617.225C1304.76 617.423 1305.16 617.587 1305.72 617.715L1307.58 618.112C1308.61 618.335 1309.38 618.688 1309.88 619.171C1310.38 619.654 1310.64 620.286 1310.65 621.067C1310.64 621.753 1310.44 622.36 1310.04 622.885C1309.65 623.406 1309.1 623.813 1308.4 624.107C1307.7 624.4 1306.9 624.547 1305.99 624.547C1304.65 624.547 1303.58 624.268 1302.76 623.709C1301.95 623.146 1301.46 622.362 1301.31 621.358L1303.81 621.117C1303.93 621.609 1304.17 621.981 1304.54 622.232C1304.91 622.483 1305.39 622.608 1305.98 622.608C1306.59 622.608 1307.08 622.483 1307.45 622.232C1307.82 621.981 1308.01 621.671 1308.01 621.301C1308.01 620.989 1307.89 620.731 1307.65 620.527C1307.41 620.324 1307.04 620.167 1306.54 620.058L1304.68 619.668C1303.63 619.45 1302.86 619.083 1302.36 618.567C1301.85 618.046 1301.61 617.388 1301.61 616.593C1301.61 615.92 1301.79 615.338 1302.16 614.845C1302.53 614.348 1303.05 613.965 1303.71 613.695C1304.38 613.42 1305.15 613.283 1306.02 613.283C1307.3 613.283 1308.31 613.555 1309.04 614.1C1309.78 614.644 1310.24 615.38 1310.41 616.308ZM1316.79 624.547C1315.7 624.547 1314.76 624.32 1313.96 623.865C1313.17 623.406 1312.56 622.757 1312.14 621.919C1311.71 621.076 1311.5 620.084 1311.5 618.943C1311.5 617.821 1311.71 616.836 1312.14 615.989C1312.57 615.137 1313.17 614.474 1313.94 614C1314.71 613.522 1315.62 613.283 1316.66 613.283C1317.33 613.283 1317.97 613.392 1318.56 613.61C1319.16 613.823 1319.69 614.154 1320.15 614.604C1320.62 615.054 1320.98 615.627 1321.25 616.323C1321.51 617.014 1321.65 617.838 1321.65 618.794V619.583H1312.7V617.85H1319.18C1319.18 617.357 1319.07 616.919 1318.86 616.536C1318.65 616.147 1318.36 615.842 1317.99 615.619C1317.62 615.397 1317.19 615.286 1316.7 615.286C1316.17 615.286 1315.71 615.414 1315.31 615.669C1314.91 615.92 1314.6 616.252 1314.38 616.664C1314.16 617.071 1314.05 617.518 1314.05 618.006V619.519C1314.05 620.153 1314.16 620.698 1314.39 621.152C1314.63 621.602 1314.95 621.948 1315.37 622.189C1315.78 622.426 1316.27 622.544 1316.83 622.544C1317.2 622.544 1317.54 622.492 1317.85 622.388C1318.15 622.279 1318.41 622.12 1318.63 621.912C1318.86 621.704 1319.02 621.446 1319.14 621.138L1321.54 621.408C1321.39 622.042 1321.1 622.596 1320.67 623.07C1320.25 623.539 1319.71 623.903 1319.05 624.164C1318.4 624.419 1317.64 624.547 1316.79 624.547ZM1325.59 617.942V624.334H1323.02V613.425H1325.48V615.279H1325.61C1325.86 614.668 1326.26 614.182 1326.81 613.823C1327.36 613.463 1328.04 613.283 1328.86 613.283C1329.61 613.283 1330.27 613.444 1330.83 613.766C1331.39 614.088 1331.83 614.554 1332.13 615.165C1332.45 615.776 1332.6 616.517 1332.59 617.388V624.334H1330.02V617.786C1330.02 617.057 1329.83 616.486 1329.46 616.074C1329.08 615.662 1328.56 615.456 1327.9 615.456C1327.45 615.456 1327.05 615.556 1326.7 615.754C1326.35 615.949 1326.08 616.23 1325.88 616.6C1325.69 616.969 1325.59 617.416 1325.59 617.942ZM1338.46 624.526C1337.6 624.526 1336.83 624.306 1336.16 623.865C1335.48 623.425 1334.94 622.786 1334.55 621.948C1334.16 621.11 1333.96 620.092 1333.96 618.894C1333.96 617.682 1334.16 616.659 1334.56 615.825C1334.96 614.987 1335.5 614.355 1336.18 613.929C1336.87 613.498 1337.63 613.283 1338.46 613.283C1339.1 613.283 1339.63 613.392 1340.04 613.61C1340.45 613.823 1340.78 614.081 1341.02 614.384C1341.26 614.682 1341.45 614.964 1341.58 615.229H1341.69V609.789H1344.27V624.334H1341.74V622.615H1341.58C1341.45 622.88 1341.26 623.162 1341.01 623.46C1340.76 623.754 1340.42 624.005 1340.01 624.213C1339.6 624.422 1339.08 624.526 1338.46 624.526ZM1339.17 622.416C1339.72 622.416 1340.18 622.27 1340.57 621.976C1340.95 621.678 1341.24 621.263 1341.44 620.733C1341.64 620.203 1341.74 619.585 1341.74 618.879C1341.74 618.174 1341.64 617.561 1341.44 617.04C1341.25 616.519 1340.96 616.114 1340.57 615.825C1340.19 615.537 1339.73 615.392 1339.17 615.392C1338.6 615.392 1338.12 615.541 1337.74 615.84C1337.36 616.138 1337.07 616.55 1336.87 617.075C1336.68 617.601 1336.58 618.202 1336.58 618.879C1336.58 619.561 1336.68 620.17 1336.87 620.705C1337.07 621.235 1337.36 621.654 1337.75 621.962C1338.13 622.265 1338.61 622.416 1339.17 622.416ZM1352.94 617.942V624.334H1350.37V609.789H1352.88V615.279H1353.01C1353.26 614.663 1353.66 614.178 1354.19 613.823C1354.73 613.463 1355.42 613.283 1356.25 613.283C1357.01 613.283 1357.67 613.441 1358.24 613.759C1358.8 614.076 1359.24 614.54 1359.54 615.151C1359.86 615.762 1360.01 616.507 1360.01 617.388V624.334H1357.44V617.786C1357.44 617.052 1357.25 616.481 1356.87 616.074C1356.5 615.662 1355.97 615.456 1355.3 615.456C1354.84 615.456 1354.43 615.556 1354.07 615.754C1353.72 615.949 1353.44 616.23 1353.24 616.6C1353.04 616.969 1352.94 617.416 1352.94 617.942ZM1366.66 624.547C1365.57 624.547 1364.62 624.32 1363.83 623.865C1363.04 623.406 1362.43 622.757 1362 621.919C1361.58 621.076 1361.36 620.084 1361.36 618.943C1361.36 617.821 1361.58 616.836 1362 615.989C1362.43 615.137 1363.04 614.474 1363.81 614C1364.58 613.522 1365.49 613.283 1366.53 613.283C1367.2 613.283 1367.83 613.392 1368.43 613.61C1369.03 613.823 1369.56 614.154 1370.02 614.604C1370.49 615.054 1370.85 615.627 1371.12 616.323C1371.38 617.014 1371.51 617.838 1371.51 618.794V619.583H1362.57V617.85H1369.05C1369.04 617.357 1368.94 616.919 1368.73 616.536C1368.52 616.147 1368.23 615.842 1367.86 615.619C1367.49 615.397 1367.05 615.286 1366.56 615.286C1366.04 615.286 1365.58 615.414 1365.18 615.669C1364.78 615.92 1364.47 616.252 1364.25 616.664C1364.03 617.071 1363.92 617.518 1363.91 618.006V619.519C1363.91 620.153 1364.03 620.698 1364.26 621.152C1364.49 621.602 1364.82 621.948 1365.23 622.189C1365.65 622.426 1366.14 622.544 1366.7 622.544C1367.07 622.544 1367.41 622.492 1367.71 622.388C1368.02 622.279 1368.28 622.12 1368.5 621.912C1368.72 621.704 1368.89 621.446 1369.01 621.138L1371.41 621.408C1371.25 622.042 1370.97 622.596 1370.54 623.07C1370.12 623.539 1369.58 623.903 1368.92 624.164C1368.26 624.419 1367.51 624.547 1366.66 624.547ZM1375.46 609.789V624.334H1372.89V609.789H1375.46ZM1377.3 628.425V613.425H1379.83V615.229H1379.98C1380.11 614.964 1380.3 614.682 1380.54 614.384C1380.78 614.081 1381.11 613.823 1381.52 613.61C1381.93 613.392 1382.46 613.283 1383.1 613.283C1383.94 613.283 1384.7 613.498 1385.38 613.929C1386.06 614.355 1386.6 614.987 1387 615.825C1387.4 616.659 1387.6 617.682 1387.6 618.894C1387.6 620.092 1387.4 621.11 1387.01 621.948C1386.62 622.786 1386.08 623.425 1385.41 623.865C1384.73 624.306 1383.96 624.526 1383.11 624.526C1382.48 624.526 1381.96 624.422 1381.55 624.213C1381.14 624.005 1380.81 623.754 1380.56 623.46C1380.31 623.162 1380.12 622.88 1379.98 622.615H1379.87V628.425H1377.3ZM1379.82 618.879C1379.82 619.585 1379.92 620.203 1380.12 620.733C1380.33 621.263 1380.62 621.678 1381 621.976C1381.38 622.27 1381.84 622.416 1382.39 622.416C1382.96 622.416 1383.43 622.265 1383.82 621.962C1384.2 621.654 1384.49 621.235 1384.68 620.705C1384.88 620.17 1384.98 619.561 1384.98 618.879C1384.98 618.202 1384.88 617.601 1384.69 617.075C1384.49 616.55 1384.21 616.138 1383.82 615.84C1383.44 615.541 1382.96 615.392 1382.39 615.392C1381.84 615.392 1381.37 615.537 1380.99 615.825C1380.61 616.114 1380.31 616.519 1380.12 617.04C1379.92 617.561 1379.82 618.174 1379.82 618.879ZM1393.8 618.404C1393.8 616.628 1394.04 614.997 1394.51 613.51C1394.98 612.019 1395.68 610.641 1396.62 609.377H1399.04C1398.68 609.845 1398.34 610.421 1398.03 611.102C1397.72 611.78 1397.44 612.523 1397.21 613.333C1396.98 614.137 1396.8 614.973 1396.67 615.84C1396.54 616.706 1396.48 617.561 1396.48 618.404C1396.48 619.526 1396.59 620.662 1396.81 621.813C1397.04 622.963 1397.35 624.029 1397.73 625.009C1398.12 625.994 1398.55 626.798 1399.04 627.423H1396.62C1395.68 626.159 1394.98 624.784 1394.51 623.297C1394.04 621.806 1393.8 620.174 1393.8 618.404ZM1400.23 624.334V613.425H1402.69V615.279H1402.82C1403.05 614.654 1403.42 614.166 1403.95 613.816C1404.47 613.46 1405.1 613.283 1405.83 613.283C1406.57 613.283 1407.19 613.463 1407.7 613.823C1408.21 614.178 1408.57 614.663 1408.78 615.279H1408.89C1409.13 614.673 1409.54 614.19 1410.11 613.83C1410.69 613.465 1411.38 613.283 1412.17 613.283C1413.17 613.283 1413.99 613.6 1414.62 614.235C1415.26 614.869 1415.58 615.795 1415.58 617.012V624.334H1413V617.409C1413 616.732 1412.82 616.237 1412.46 615.925C1412.1 615.608 1411.66 615.449 1411.14 615.449C1410.52 615.449 1410.03 615.643 1409.68 616.031C1409.34 616.415 1409.16 616.914 1409.16 617.53V624.334H1406.64V617.303C1406.64 616.739 1406.47 616.289 1406.13 615.953C1405.79 615.617 1405.35 615.449 1404.81 615.449C1404.44 615.449 1404.1 615.544 1403.8 615.733C1403.5 615.918 1403.26 616.181 1403.08 616.521C1402.9 616.858 1402.81 617.251 1402.81 617.7V624.334H1400.23ZM1422.14 624.547C1421.08 624.547 1420.15 624.313 1419.37 623.844C1418.59 623.375 1417.99 622.719 1417.55 621.877C1417.13 621.034 1416.92 620.049 1416.92 618.922C1416.92 617.795 1417.13 616.808 1417.55 615.96C1417.99 615.113 1418.59 614.455 1419.37 613.986C1420.15 613.517 1421.08 613.283 1422.14 613.283C1423.21 613.283 1424.13 613.517 1424.91 613.986C1425.69 614.455 1426.3 615.113 1426.72 615.96C1427.15 616.808 1427.37 617.795 1427.37 618.922C1427.37 620.049 1427.15 621.034 1426.72 621.877C1426.3 622.719 1425.69 623.375 1424.91 623.844C1424.13 624.313 1423.21 624.547 1422.14 624.547ZM1422.16 622.487C1422.73 622.487 1423.22 622.329 1423.61 622.012C1423.99 621.69 1424.28 621.259 1424.47 620.719C1424.67 620.179 1424.76 619.578 1424.76 618.915C1424.76 618.247 1424.67 617.644 1424.47 617.104C1424.28 616.559 1423.99 616.126 1423.61 615.804C1423.22 615.482 1422.73 615.321 1422.16 615.321C1421.56 615.321 1421.07 615.482 1420.68 615.804C1420.29 616.126 1420 616.559 1419.81 617.104C1419.62 617.644 1419.52 618.247 1419.52 618.915C1419.52 619.578 1419.62 620.179 1419.81 620.719C1420 621.259 1420.29 621.69 1420.68 622.012C1421.07 622.329 1421.56 622.487 1422.16 622.487ZM1431.32 617.942V624.334H1428.75V613.425H1431.21V615.279H1431.34C1431.59 614.668 1431.99 614.182 1432.54 613.823C1433.09 613.463 1433.78 613.283 1434.59 613.283C1435.34 613.283 1436 613.444 1436.56 613.766C1437.12 614.088 1437.56 614.554 1437.86 615.165C1438.18 615.776 1438.33 616.517 1438.33 617.388V624.334H1435.75V617.786C1435.75 617.057 1435.57 616.486 1435.19 616.074C1434.81 615.662 1434.29 615.456 1433.63 615.456C1433.18 615.456 1432.78 615.556 1432.43 615.754C1432.09 615.949 1431.81 616.23 1431.61 616.6C1431.42 616.969 1431.32 617.416 1431.32 617.942ZM1444.97 624.547C1443.88 624.547 1442.93 624.32 1442.14 623.865C1441.34 623.406 1440.74 622.757 1440.31 621.919C1439.88 621.076 1439.67 620.084 1439.67 618.943C1439.67 617.821 1439.88 616.836 1440.31 615.989C1440.74 615.137 1441.34 614.474 1442.11 614C1442.89 613.522 1443.79 613.283 1444.83 613.283C1445.51 613.283 1446.14 613.392 1446.74 613.61C1447.34 613.823 1447.87 614.154 1448.33 614.604C1448.79 615.054 1449.16 615.627 1449.42 616.323C1449.69 617.014 1449.82 617.838 1449.82 618.794V619.583H1440.88V617.85H1447.36C1447.35 617.357 1447.24 616.919 1447.04 616.536C1446.83 616.147 1446.54 615.842 1446.16 615.619C1445.79 615.397 1445.36 615.286 1444.87 615.286C1444.34 615.286 1443.88 615.414 1443.48 615.669C1443.09 615.92 1442.78 616.252 1442.55 616.664C1442.34 617.071 1442.23 617.518 1442.22 618.006V619.519C1442.22 620.153 1442.34 620.698 1442.57 621.152C1442.8 621.602 1443.12 621.948 1443.54 622.189C1443.96 622.426 1444.45 622.544 1445 622.544C1445.38 622.544 1445.72 622.492 1446.02 622.388C1446.32 622.279 1446.59 622.12 1446.81 621.912C1447.03 621.704 1447.2 621.446 1447.31 621.138L1449.71 621.408C1449.56 622.042 1449.27 622.596 1448.85 623.07C1448.43 623.539 1447.89 623.903 1447.23 624.164C1446.57 624.419 1445.82 624.547 1444.97 624.547ZM1452.48 628.425C1452.13 628.425 1451.81 628.396 1451.51 628.34C1451.21 628.288 1450.98 628.226 1450.8 628.155L1451.4 626.152C1451.77 626.261 1452.11 626.313 1452.4 626.308C1452.7 626.304 1452.95 626.211 1453.18 626.031C1453.4 625.856 1453.6 625.563 1453.75 625.151L1453.97 624.561L1450.02 613.425H1452.74L1455.26 621.664H1455.37L1457.89 613.425H1460.63L1456.26 625.655C1456.06 626.233 1455.79 626.727 1455.45 627.139C1455.11 627.556 1454.7 627.873 1454.21 628.091C1453.73 628.314 1453.15 628.425 1452.48 628.425ZM1466.26 626.152V607.97H1467.43V626.152H1466.26ZM1469.62 613.787C1469.56 613.167 1469.28 612.684 1468.79 612.338C1468.3 611.993 1467.66 611.82 1466.88 611.82C1466.33 611.82 1465.86 611.903 1465.47 612.068C1465.08 612.234 1464.78 612.459 1464.57 612.743C1464.36 613.027 1464.25 613.352 1464.25 613.716C1464.25 614.019 1464.32 614.282 1464.45 614.504C1464.6 614.727 1464.79 614.916 1465.03 615.073C1465.27 615.224 1465.54 615.352 1465.83 615.456C1466.13 615.56 1466.42 615.648 1466.72 615.719L1468.08 616.06C1468.63 616.188 1469.16 616.36 1469.67 616.578C1470.18 616.796 1470.64 617.071 1471.04 617.402C1471.44 617.734 1471.77 618.134 1472 618.602C1472.24 619.071 1472.36 619.62 1472.36 620.25C1472.36 621.102 1472.14 621.853 1471.71 622.502C1471.27 623.146 1470.64 623.65 1469.82 624.014C1469 624.374 1468 624.554 1466.84 624.554C1465.71 624.554 1464.73 624.379 1463.89 624.029C1463.06 623.678 1462.42 623.167 1461.95 622.494C1461.48 621.822 1461.23 621.003 1461.19 620.037H1463.79C1463.82 620.544 1463.98 620.965 1464.25 621.301C1464.53 621.637 1464.89 621.888 1465.33 622.054C1465.77 622.22 1466.27 622.303 1466.82 622.303C1467.39 622.303 1467.89 622.218 1468.32 622.047C1468.76 621.872 1469.1 621.63 1469.35 621.323C1469.59 621.01 1469.72 620.646 1469.72 620.229C1469.72 619.85 1469.61 619.538 1469.39 619.291C1469.17 619.04 1468.87 618.832 1468.47 618.666C1468.09 618.496 1467.63 618.344 1467.11 618.212L1465.46 617.786C1464.26 617.478 1463.31 617.012 1462.61 616.387C1461.92 615.757 1461.58 614.921 1461.58 613.879C1461.58 613.022 1461.81 612.272 1462.27 611.628C1462.74 610.984 1463.38 610.485 1464.18 610.129C1464.99 609.77 1465.9 609.59 1466.92 609.59C1467.95 609.59 1468.85 609.77 1469.63 610.129C1470.41 610.485 1471.03 610.979 1471.47 611.614C1471.92 612.244 1472.15 612.968 1472.16 613.787H1469.62ZM1478.45 626.152V607.97H1479.62V626.152H1478.45ZM1481.81 613.787C1481.75 613.167 1481.47 612.684 1480.97 612.338C1480.49 611.993 1479.85 611.82 1479.07 611.82C1478.52 611.82 1478.05 611.903 1477.66 612.068C1477.26 612.234 1476.96 612.459 1476.76 612.743C1476.55 613.027 1476.44 613.352 1476.44 613.716C1476.44 614.019 1476.5 614.282 1476.64 614.504C1476.78 614.727 1476.98 614.916 1477.22 615.073C1477.46 615.224 1477.73 615.352 1478.02 615.456C1478.31 615.56 1478.61 615.648 1478.91 615.719L1480.27 616.06C1480.82 616.188 1481.35 616.36 1481.86 616.578C1482.37 616.796 1482.82 617.071 1483.23 617.402C1483.63 617.734 1483.96 618.134 1484.19 618.602C1484.43 619.071 1484.55 619.62 1484.55 620.25C1484.55 621.102 1484.33 621.853 1483.89 622.502C1483.46 623.146 1482.83 623.65 1482 624.014C1481.19 624.374 1480.19 624.554 1479.03 624.554C1477.9 624.554 1476.91 624.379 1476.08 624.029C1475.25 623.678 1474.6 623.167 1474.13 622.494C1473.67 621.822 1473.42 621.003 1473.38 620.037H1475.97C1476.01 620.544 1476.17 620.965 1476.44 621.301C1476.72 621.637 1477.08 621.888 1477.52 622.054C1477.96 622.22 1478.46 622.303 1479.01 622.303C1479.58 622.303 1480.08 622.218 1480.51 622.047C1480.95 621.872 1481.29 621.63 1481.54 621.323C1481.78 621.01 1481.91 620.646 1481.91 620.229C1481.91 619.85 1481.8 619.538 1481.58 619.291C1481.36 619.04 1481.05 618.832 1480.66 618.666C1480.27 618.496 1479.82 618.344 1479.3 618.212L1477.64 617.786C1476.45 617.478 1475.5 617.012 1474.8 616.387C1474.11 615.757 1473.77 614.921 1473.77 613.879C1473.77 613.022 1474 612.272 1474.46 611.628C1474.93 610.984 1475.57 610.485 1476.37 610.129C1477.18 609.77 1478.09 609.59 1479.11 609.59C1480.14 609.59 1481.04 609.77 1481.82 610.129C1482.6 610.485 1483.21 610.979 1483.66 611.614C1484.1 612.244 1484.33 612.968 1484.35 613.787H1481.81ZM1490.57 617.061C1490.57 618.832 1490.33 620.463 1489.86 621.955C1489.39 623.441 1488.69 624.817 1487.76 626.081H1485.34C1485.7 625.612 1486.04 625.039 1486.34 624.362C1486.66 623.685 1486.93 622.942 1487.15 622.132C1487.39 621.323 1487.57 620.485 1487.69 619.618C1487.83 618.752 1487.89 617.899 1487.89 617.061C1487.89 615.939 1487.78 614.803 1487.55 613.652C1487.33 612.502 1487.02 611.434 1486.64 610.449C1486.25 609.464 1485.82 608.659 1485.34 608.034H1487.76C1488.69 609.298 1489.39 610.676 1489.86 612.168C1490.33 613.655 1490.57 615.286 1490.57 617.061Z" fill="#FF007A"/>
<path fill-rule="evenodd" clip-rule="evenodd" d="M341.255 194.523H310.263V19.2774H379.31V194.521H410.302V294.476H341.255V194.523ZM450.728 194.523H419.736V19.2774H498.124L594.383 192.707V19.2774H663.43V194.521H694.422V294.476H616.034L560.557 194.523H524.507L488.782 130.159V194.521H519.775V294.476H450.728V194.523ZM805.383 194.523H774.391V87.512H693.159V19.2774H924.669V87.512H843.437V194.521H874.43V294.476H805.383V194.523ZM1106.05 194.523H1039.03C1010.75 189.273 988.387 179.055 971.936 163.87C954.606 147.353 945.941 126.909 945.941 102.54C945.941 76.5457 955.283 55.2901 973.966 38.773C992.65 22.2559 1016.61 13.9974 1045.86 13.9974C1071.04 13.9974 1093.78 20.3605 1114.09 33.0868C1134.4 45.8131 1149.02 62.8717 1157.96 84.2627L1090.53 108.226C1086.74 99.2906 1080.92 92.2505 1073.07 87.1058C1065.49 81.9611 1057.09 79.3888 1047.89 79.3888C1039.22 79.3888 1032.05 81.555 1026.36 85.8873C1020.95 89.9489 1018.24 95.229 1018.24 101.727C1018.24 107.955 1021.35 112.965 1027.58 116.755C1034.08 120.546 1044.37 123.525 1058.45 125.691C1090.13 131.106 1115.04 142.343 1133.18 159.402C1144.2 169.761 1151.87 181.467 1156.19 194.521H1189.62C1190.8 200.254 1191.39 206.224 1191.39 212.432C1191.39 237.884 1181.64 258.734 1162.14 274.98C1142.92 290.956 1118.14 298.943 1087.81 298.943C1062.63 298.943 1039.75 293.122 1019.17 281.479C998.595 269.565 983.703 253.724 974.497 233.958L1041.92 201.872C1045.98 211.619 1052.07 219.336 1060.2 225.023C1068.32 230.709 1077.25 233.552 1087 233.552C1096.21 233.552 1103.79 231.521 1109.75 227.46C1115.7 223.127 1118.68 217.576 1118.68 210.807C1118.68 204.176 1114.47 198.748 1106.05 194.523ZM26.6667 19.2774V194.523H57.6589V294.476H126.706V194.523H142.826L222.559 294.476H310.695L230.446 194.521H192.138L165.573 161.433L279.703 19.2774H191.567L106.68 126.909H95.7136V19.2774H26.6667ZM1824.29 194.523H1793.29V19.2774H1862.34V194.521H1893.33V294.476H1824.29V194.523ZM1712.13 194.523H1593.43V134.22H1759.14C1760.23 141.26 1760.77 152.091 1760.77 166.713C1760.77 176.364 1759.99 185.634 1758.43 194.521H1787.52C1781.34 219.917 1768.4 241.998 1748.71 260.764C1720.28 288.112 1685.35 301.786 1643.92 301.786C1602.49 301.786 1567.42 287.706 1538.72 259.546C1520.21 241.03 1507.72 219.355 1501.26 194.523H1468.2C1466.12 183.901 1465.08 172.736 1465.08 161.027C1465.08 117.703 1479.3 81.9611 1507.73 53.8009C1536.43 25.3698 1571.5 11.1543 1612.93 11.1543C1641.63 11.1543 1667.76 18.1944 1691.31 32.2745C1715.14 46.3546 1733.01 65.444 1744.93 89.5428L1682.78 122.035C1676.29 109.038 1666.81 98.8844 1654.35 91.5735C1641.9 83.9919 1628.09 80.2011 1612.93 80.2011C1590.99 80.2011 1572.31 87.7827 1556.88 102.946C1541.71 118.109 1534.13 137.469 1534.13 161.027C1534.13 173.338 1536.2 184.503 1540.34 194.521H1575.86C1579.12 200.09 1583.12 205.248 1587.87 209.995C1603.3 225.158 1621.99 232.74 1643.92 232.74C1660.71 232.74 1675.6 228.543 1688.6 220.149C1699.09 213.372 1706.93 204.83 1712.13 194.523ZM1391.71 194.523H1362.62C1363.12 190.87 1363.37 187.015 1363.37 182.959V19.2774H1432.42V187.021C1432.42 189.552 1432.36 192.053 1432.24 194.521H1462.49C1459.35 222.129 1448.15 245.564 1428.89 264.826C1405.87 287.571 1377.44 298.943 1343.59 298.943C1309.75 298.943 1281.32 287.571 1258.3 264.826C1239.04 245.564 1227.84 222.13 1224.69 194.523H1192.97C1192.84 192.053 1192.78 189.553 1192.78 187.021V19.2774H1261.83V182.959C1261.83 187.014 1262.08 190.869 1262.59 194.521H1295.47C1297.8 202.664 1301.65 209.581 1307.04 215.275C1316.52 225.023 1328.7 229.897 1343.59 229.897C1358.49 229.897 1370.67 225.023 1380.15 215.275C1385.53 209.582 1389.39 202.664 1391.71 194.523Z" fill="#FF007A"/>
</svg>
